<svg id="Illustration" xmlns="http://www.w3.org/2000/svg" xmlns:xlink="http://www.w3.org/1999/xlink" width="718.272" height="726.925" viewBox="0 0 718.272 726.925">
  <defs>
    <linearGradient id="linear-gradient" x1="1" y1="0.5" x2="0" y2="0.5" gradientUnits="objectBoundingBox">
      <stop offset="0" stop-color="#6bbc61"/>
      <stop offset="1" stop-color="#a7df63"/>
    </linearGradient>
    <linearGradient id="linear-gradient-3" x1="0.765" y1="1.122" x2="0.181" y2="0.065" xlink:href="#linear-gradient"/>
    <linearGradient id="linear-gradient-4" x1="0.5" y1="0.054" x2="0.5" y2="1.557" gradientUnits="objectBoundingBox">
      <stop offset="0" stop-color="#8f5138"/>
      <stop offset="1" stop-color="#ba6d4d"/>
    </linearGradient>
    <linearGradient id="linear-gradient-5" x1="-0.486" y1="0.5" x2="0.793" y2="0.5" xlink:href="#linear-gradient-4"/>
    <clipPath id="clip-path">
      <path id="Caminho_10" data-name="Caminho 10" d="M1179.743,601c3.741,21.156,13.456,37.284,33.316,41.617,34.681,7.567,55.489-6.936,71.253,49.814s46.662,66.523,46.662,66.523H719.333V601Z" transform="translate(-719.333 -601)" fill="none"/>
    </clipPath>
    <linearGradient id="linear-gradient-6" x1="0.474" y1="0.792" x2="0.861" y2="0.142" gradientUnits="objectBoundingBox">
      <stop offset="0" stop-color="#1d164d"/>
      <stop offset="1" stop-color="#4a4975"/>
    </linearGradient>
    <linearGradient id="linear-gradient-7" x1="0.209" y1="0.984" x2="0.732" y2="0.169" gradientUnits="objectBoundingBox">
      <stop offset="0" stop-color="#c9e2f4"/>
      <stop offset="1" stop-color="#eaf5ff"/>
    </linearGradient>
    <linearGradient id="linear-gradient-8" x1="0.296" y1="0.894" x2="0.502" y2="0.422" gradientUnits="objectBoundingBox">
      <stop offset="0" stop-color="#ffc0ac"/>
      <stop offset="1" stop-color="#ffd6c7"/>
    </linearGradient>
    <linearGradient id="linear-gradient-9" x1="-0.271" y1="1.412" x2="0.879" y2="0.262" gradientUnits="objectBoundingBox">
      <stop offset="0" stop-color="#c7283a"/>
      <stop offset="1" stop-color="#ef4b4b"/>
    </linearGradient>
    <linearGradient id="linear-gradient-10" x1="-0.66" y1="0.776" x2="1.999" y2="0.213" gradientUnits="objectBoundingBox">
      <stop offset="0" stop-color="#c7283a"/>
      <stop offset="1" stop-color="#c7283a" stop-opacity="0"/>
    </linearGradient>
    <linearGradient id="linear-gradient-11" x1="0.023" y1="0.682" x2="0.496" y2="0.18" xlink:href="#linear-gradient-8"/>
    <linearGradient id="linear-gradient-12" x1="0.443" y1="0.648" x2="0.563" y2="0.335" xlink:href="#linear-gradient-6"/>
    <linearGradient id="linear-gradient-13" x1="0.166" y1="1.545" x2="0.639" y2="0.048" xlink:href="#linear-gradient-8"/>
    <linearGradient id="linear-gradient-14" x1="0.565" y1="-0.198" x2="0.273" y2="2.017" xlink:href="#linear-gradient-6"/>
    <linearGradient id="linear-gradient-15" x1="0.799" y1="0.016" x2="0.222" y2="0.95" gradientUnits="objectBoundingBox">
      <stop offset="0" stop-color="#acd4f3"/>
      <stop offset="1" stop-color="#4099f1"/>
    </linearGradient>
    <linearGradient id="linear-gradient-16" x1="-1.259" y1="0.5" x2="0.888" y2="0.5" xlink:href="#linear-gradient-15"/>
    <linearGradient id="linear-gradient-17" x1="0.405" y1="-0.574" x2="0.582" y2="1.433" xlink:href="#linear-gradient-15"/>
    <linearGradient id="linear-gradient-18" x1="0.485" y1="0.559" x2="1.144" y2="-0.068" xlink:href="#linear-gradient-8"/>
    <linearGradient id="linear-gradient-19" x1="-1.79" y1="0.559" x2="-1.131" y2="-0.068" xlink:href="#linear-gradient-8"/>
    <linearGradient id="linear-gradient-20" x1="0.854" y1="0.32" x2="0.439" y2="0.645" gradientUnits="objectBoundingBox">
      <stop offset="0" stop-color="#ffb965"/>
      <stop offset="1" stop-color="#ff8a5f"/>
    </linearGradient>
    <linearGradient id="linear-gradient-21" x1="0.555" y1="0.378" x2="-0.223" y2="1.323" gradientUnits="objectBoundingBox">
      <stop offset="0" stop-color="#dbe42c"/>
      <stop offset="1" stop-color="#6ad419"/>
    </linearGradient>
    <linearGradient id="linear-gradient-22" x1="0.536" y1="0.234" x2="0.09" y2="1.789" xlink:href="#linear-gradient-21"/>
    <linearGradient id="linear-gradient-23" x1="0.644" y1="1.355" x2="0.447" y2="0.1" xlink:href="#linear-gradient-9"/>
    <linearGradient id="linear-gradient-24" x1="0.92" y1="0.37" x2="-0.839" y2="1.206" gradientUnits="objectBoundingBox">
      <stop offset="0" stop-color="#fff"/>
      <stop offset="1" stop-color="#fff" stop-opacity="0"/>
    </linearGradient>
    <linearGradient id="linear-gradient-25" x1="0.149" y1="0.878" x2="0.627" y2="0.374" xlink:href="#linear-gradient-4"/>
    <linearGradient id="linear-gradient-26" x1="0.238" y1="1.258" x2="0.667" y2="0.016" xlink:href="#linear-gradient-8"/>
    <linearGradient id="linear-gradient-27" x1="0.393" y1="0.5" x2="-1.738" y2="0.5" xlink:href="#linear-gradient-8"/>
    <linearGradient id="linear-gradient-28" x1="0.57" y1="-2.692" x2="0.428" y2="4.811" xlink:href="#linear-gradient-20"/>
    <linearGradient id="linear-gradient-29" x1="0.28" y1="0.867" x2="0.736" y2="0.106" xlink:href="#linear-gradient-6"/>
    <linearGradient id="linear-gradient-30" x1="0.378" y1="3.015" x2="0.631" y2="-2.196" xlink:href="#linear-gradient-7"/>
    <linearGradient id="linear-gradient-31" x1="-0.039" y1="0.939" x2="0.974" y2="-0.009" xlink:href="#linear-gradient-7"/>
    <linearGradient id="linear-gradient-32" x1="0.181" y1="1.087" x2="0.827" y2="-0.055" xlink:href="#linear-gradient-6"/>
    <linearGradient id="linear-gradient-33" x1="0.258" y1="1.276" x2="0.529" y2="0.407" xlink:href="#linear-gradient-7"/>
    <linearGradient id="linear-gradient-34" x1="-0.579" y1="-0.083" x2="1.004" y2="0.772" xlink:href="#linear-gradient-6"/>
    <linearGradient id="linear-gradient-35" x1="-0.114" y1="0.5" x2="1.321" y2="0.5" xlink:href="#linear-gradient-7"/>
    <linearGradient id="linear-gradient-36" x1="1" y1="0.5" x2="0" y2="0.5" xlink:href="#linear-gradient-6"/>
    <linearGradient id="linear-gradient-37" x1="4.137" y1="14.01" x2="3.117" y2="12.57" xlink:href="#linear-gradient-9"/>
    <linearGradient id="linear-gradient-38" x1="5.635" y1="13.715" x2="2.499" y2="13.561" xlink:href="#linear-gradient-24"/>
    <linearGradient id="linear-gradient-39" x1="7.562" y1="34.069" x2="7.481" y2="33.438" xlink:href="#linear-gradient"/>
    <linearGradient id="linear-gradient-40" x1="3.042" y1="20.073" x2="2.064" y2="18.564" xlink:href="#linear-gradient-9"/>
    <linearGradient id="linear-gradient-41" x1="2.64" y1="30.768" x2="0.637" y2="30.515" xlink:href="#linear-gradient-24"/>
    <linearGradient id="linear-gradient-42" x1="6.095" y1="46.484" x2="6.016" y2="45.874" xlink:href="#linear-gradient"/>
    <linearGradient id="linear-gradient-43" x1="7.15" y1="27.366" x2="6.163" y2="25.821" xlink:href="#linear-gradient-9"/>
    <linearGradient id="linear-gradient-44" x1="9.013" y1="29.1" x2="6.368" y2="28.925" xlink:href="#linear-gradient-24"/>
    <linearGradient id="linear-gradient-45" x1="13.619" y1="80.383" x2="13.555" y2="79.613" xlink:href="#linear-gradient"/>
    <linearGradient id="linear-gradient-46" x1="8.498" y1="26.072" x2="7.475" y2="24.631" xlink:href="#linear-gradient-9"/>
    <linearGradient id="linear-gradient-47" x1="12.864" y1="26.116" x2="9.604" y2="25.963" xlink:href="#linear-gradient-24"/>
    <linearGradient id="linear-gradient-48" x1="18.488" y1="67.148" x2="18.411" y2="66.513" xlink:href="#linear-gradient"/>
    <linearGradient id="linear-gradient-49" x1="8.642" y1="42.547" x2="7.658" y2="41.031" xlink:href="#linear-gradient-9"/>
    <linearGradient id="linear-gradient-50" x1="10.004" y1="50.093" x2="7.616" y2="49.907" xlink:href="#linear-gradient-24"/>
    <linearGradient id="linear-gradient-51" x1="17.902" y1="125.217" x2="17.835" y2="124.473" xlink:href="#linear-gradient"/>
    <linearGradient id="linear-gradient-52" x1="12.091" y1="63.259" x2="11.053" y2="61.781" xlink:href="#linear-gradient-9"/>
    <linearGradient id="linear-gradient-53" x1="24.121" y1="62.315" x2="19.844" y2="62.165" xlink:href="#linear-gradient-24"/>
    <linearGradient id="linear-gradient-54" x1="22.931" y1="182.233" x2="22.867" y2="181.53" xlink:href="#linear-gradient"/>
    <linearGradient id="linear-gradient-55" x1="-0.698" y1="0.874" x2="1.719" y2="0.119" xlink:href="#linear-gradient-7"/>
    <linearGradient id="linear-gradient-56" x1="-1.743" y1="0.861" x2="2.748" y2="0.138" xlink:href="#linear-gradient-7"/>
    <linearGradient id="linear-gradient-57" x1="0.196" y1="0.964" x2="0.826" y2="0.002" xlink:href="#linear-gradient-7"/>
    <linearGradient id="linear-gradient-58" x1="1.097" y1="0.978" x2="0.145" y2="-0.023" xlink:href="#linear-gradient-24"/>
  </defs>
  <g id="bg" transform="translate(0.359)">
    <path id="Caminho_1" data-name="Caminho 1" d="M913.29,0S796.4,52.6,803.494,150.484,723,297.189,723,297.189V0Z" transform="translate(-305.477)" opacity="0.2" fill="url(#linear-gradient)"/>
    <path id="Caminho_2" data-name="Caminho 2" d="M900.736,747.69S836.9,759.107,805.685,675.4,707.8,628.91,679.421,589.736s4.335-109.546-14.582-155.978-58.245-40.468-58.245-40.468v354.4Z" transform="translate(-182.823 -21.289)" opacity="0.2" fill="url(#linear-gradient)"/>
    <path id="Caminho_3" data-name="Caminho 3" d="M718.96,0V726.4h611.633s-30.891-9.77-46.658-66.521-36.575-42.25-71.25-49.817-38.467-51.075-33.426-94.583,28.7-116.811-11.029-136.2-62.9,3.783-72.829,19.39-37.833,10.31-47.528,22.18-11.114,42.137-43.272,53.723l-17.5-.946s28.839-9.061,30.418-30.74-10.092-39.016,11.35-45S1070.81,394.1,1076.8,363.2s5.987-43.2,30.267-50.441,63.371-35.63,72.2-82.288c3.234-17.12,1.6-35.63-1.031-54.452-4.531-32.5-12.012-65.925-2.431-94.678C1190.932,35.942,1234.44,0,1234.44,0Z" transform="translate(-718.96)" fill="url(#linear-gradient-3)"/>
  </g>
  <g id="table" transform="translate(0 540.071)">
    <g id="Grupo_5" data-name="Grupo 5">
      <path id="Caminho_4" data-name="Caminho 4" d="M1179.743,601c3.741,21.156,13.456,37.284,33.316,41.617,34.681,7.567,55.489-6.936,71.253,49.814s46.662,66.523,46.662,66.523H719.333V601Z" transform="translate(-719.333 -572.625)" fill="url(#linear-gradient-4)"/>
      <g id="Grupo_4" data-name="Grupo 4">
        <path id="Caminho_5" data-name="Caminho 5" d="M879.224,599.375V571h458.541a146.987,146.987,0,0,0,1.869,28.375Z" transform="translate(-879.224 -571)" fill="url(#linear-gradient-5)"/>
        <g id="Grupo_3" data-name="Grupo 3" transform="translate(0 28.375)">
          <g id="Grupo_2" data-name="Grupo 2" clip-path="url(#clip-path)">
            <g id="Grupo_1" data-name="Grupo 1" transform="translate(-8.022 12.608)">
              <path id="Caminho_6" data-name="Caminho 6" d="M1338.82,745.984s-15.446-98.7-194.769-78.329S916.878,561.127,770.1,641.022s59.048,158.225,183.739,144.125,151.537-43.864,233.811-10.966S1343.057,783.581,1338.82,745.984Z" transform="translate(-719.333 -614.33)" fill="none" stroke="#fff" stroke-miterlimit="10" stroke-width="1" opacity="0.2"/>
              <path id="Caminho_7" data-name="Caminho 7" d="M1265.787,775.079c16.109,0,29.83-3.144,38.635-8.853,7.279-4.72,10.755-10.941,10.063-18-.34-1.7-4.041-18.5-20.59-34.664-21.81-21.3-56.219-32.107-102.269-32.107a369.065,369.065,0,0,0-41.37,2.5,387.307,387.307,0,0,1-43.529,2.515c-66.851,0-114.694-17.99-156.907-33.862-30.981-11.65-57.737-21.71-85.076-21.71-23.048,0-47.881,7.418-75.916,22.678-37.341,20.326-49.957,40.61-37.505,60.292,19.608,30.984,100.426,58.168,172.951,58.171h.015a235.052,235.052,0,0,0,26.243-1.388c38.854-4.394,67.376-10.3,92.541-15.515,27.536-5.7,51.318-10.629,76.985-10.629,27.321,0,53.006,5.4,83.281,17.5C1224.726,770.558,1246.321,775.079,1265.787,775.079Z" transform="translate(-720.773 -615.227)" fill="none" stroke="#fff" stroke-miterlimit="10" stroke-width="1" opacity="0.2"/>
              <path id="Caminho_8" data-name="Caminho 8" d="M1267.352,760.31c8.737,0,15.931-1.415,19.734-3.881a6.343,6.343,0,0,0,3.178-5.916c-.639-2.685-4.234-15.542-16.787-27.8-17.011-16.619-43.274-24.7-80.287-24.7a327.082,327.082,0,0,0-36.6,2.23,429.68,429.68,0,0,1-48.3,2.785c-74.223,0-127.631-20.081-170.546-36.216-27.619-10.386-51.47-19.356-71.437-19.356-16.15,0-35.874,6.28-58.626,18.665-43.048,23.431-33.712,38.185-30.643,43.034,14.079,22.246,82.144,48.108,148.8,48.111a192.713,192.713,0,0,0,21.507-1.123c37-4.184,64.574-9.9,88.9-14.935,28.5-5.9,55.405-11.475,85.371-11.475,32.7,0,62.776,6.2,97.531,20.094C1236.3,756.686,1252.968,760.31,1267.352,760.31Z" transform="translate(-722.338 -616.124)" fill="none" stroke="#fff" stroke-miterlimit="10" stroke-width="1" opacity="0.2"/>
              <path id="Caminho_9" data-name="Caminho 9" d="M1266.064,745.191a51.735,51.735,0,0,0-9.858-13.33c-12.237-11.954-30.218-17.286-58.305-17.286a284.956,284.956,0,0,0-31.83,1.963q-2.429.275-4.857.527c25.192,3.119,49.919,9.8,76.9,20.585C1248.222,741.694,1257.911,744.293,1266.064,745.191ZM930.554,742.5a150.594,150.594,0,0,0,16.755-.857c35.161-3.976,61.789-9.491,85.281-14.358,15.582-3.228,31.448-6.514,48.056-8.879-65.216-4.819-114.477-23.341-151.828-37.384-22.232-8.36-45.212-17-57.8-17-3.384,0-16.362,1.057-41.34,14.65-18.716,10.189-23.482,17.06-24.659,20.249-.963,2.613-.109,3.964.882,5.527C815.373,719.412,873.167,742.494,930.554,742.5Z" transform="translate(-727.048 -617.021)" fill="none" stroke="#fff" stroke-miterlimit="10" stroke-width="1" opacity="0.2"/>
            </g>
          </g>
        </g>
      </g>
    </g>
  </g>
  <g id="obj" transform="translate(196.868 199.55)">
    <g id="Grupo_6" data-name="Grupo 6">
      <path id="Caminho_11" data-name="Caminho 11" d="M1038.908,374.628s-21.3-22.385,0-39.094,26.972-22.07,27.6-63.687,17.5-54.7,37.518-59.745,27.744,8.513,27.744,8.513,13.242-4.256,13.242,12.769-4.1,72.254,5.36,94.454S1038.908,374.628,1038.908,374.628Z" transform="translate(-1029.443 -210.978)" fill="url(#linear-gradient-6)"/>
      <path id="Caminho_12" data-name="Caminho 12" d="M990.5,458.072l1.816,2.175h28.063l-.454,1c-1.9,4.37-9.118,22.4-7.746,41.323,1.58,21.754,5.675,32.792,4.1,42.25h108.147l-11.35-69.68,10.083-19.863,8.834,6.621,12.854-44.133a32.45,32.45,0,0,0-1.22-21.65L1122.788,346.4a33.829,33.829,0,0,0-23.041-19.74l-17.517-4.341-4.606-1.144-2.705-.672-30.74,3.31-.492.189-3.263,1.286-22.085,8.692a40.081,40.081,0,0,0-25.112,32.47l-8.673,71.486A26.464,26.464,0,0,0,990.5,458.072Z" transform="translate(-982.05 -216.91)" fill="url(#linear-gradient-7)"/>
      <path id="Caminho_13" data-name="Caminho 13" d="M1112.51,466.988h28.063s2.005-8.144,4.559-20.421h-.01C1117.05,437.885,1112.51,466.988,1112.51,466.988Z" transform="translate(-1102.241 -223.651)" fill="#a7bec9"/>
      <path id="Caminho_14" data-name="Caminho 14" d="M1056.648,319.843V287.684s-15.763-5.833-13.714-16.394,9.774-8.985,13.714,0a10.4,10.4,0,0,0,1.1-7.342s28.612,1.273,35.705-16.7c0,0,2.838,9.695,9.931,11.823,0,0-.237,36.178-3.232,44.376s-12.769,6.936-12.769,6.936v6.148s2.365,8.827-5.99,12.138S1060.117,327.724,1056.648,319.843Z" transform="translate(-994.516 -212.942)" fill="url(#linear-gradient-8)"/>
      <path id="Caminho_15" data-name="Caminho 15" d="M1113.488,462.5l-3.244-1.816s15.256-37.833,19.04-74.087c.946-9.1,1.6-17.262,2.166-24.535a37.919,37.919,0,0,0-9.421,22.643c-.946,16.079-1.892,22.388-7.879,30.267s3.282,18.037-5.609,25.575c-4.767,4.029-6.886,13.771-7.831,21.953Z" transform="translate(-1077.397 -219.161)" fill="#c9e2f4"/>
      <path id="Caminho_16" data-name="Caminho 16" d="M1007.5,502.424c1.58,21.754,5.675,32.792,4.1,42.25h108.147l-11.35-69.68c-6.309-30.267-9.619-112.791-18.368-133.836-4.124-9.893-8.73-15.663-12.475-18.992-4.219-3.755-7.312-4.417-7.312-4.417a25.3,25.3,0,0,1,2.705,3.273c4.294,5.94,12.268,20.411,13.3,46.857,0,0-19.626,12.769-43.035,3.074,0,0-5.5-23.286-4.2-47.1.114-2.034.274-4.077.492-6.1a20.431,20.431,0,0,0-3.755,7.387c-3.462,11.2-3.519,30.617-6.489,59.058-3.783,36.254-19.039,74.087-19.039,74.087l3.244,1.816h2.242l-.454,1C1013.347,465.47,1006.131,483.5,1007.5,502.424Z" transform="translate(-977.37 -216.761)" fill="url(#linear-gradient-9)"/>
      <path id="Caminho_17" data-name="Caminho 17" d="M1007.5,502.424c-1.371-18.926,5.845-36.954,7.746-41.323l.454-1h-2.242l-3.244-1.816s15.256-37.833,19.039-74.087c2.97-28.441,3.027-47.859,6.489-59.058a20.431,20.431,0,0,1,3.755-7.387c-.218,2.024-.378,4.067-.492,6.1-.135,2.473-.192,4.939-.194,7.376l0,0c-6.522,7.8-4.117,30.5-2.018,36.875s15.4,11.6,6.965,9.707,1.813,12.3,7.387,18.68.1,9.458-7.387,6.384-10.246,6.384,0,23.173-11.95,75.428,29.952,85.2,46.034,33.423,46.034,33.423H1011.6C1013.177,535.216,1009.082,524.178,1007.5,502.424Z" transform="translate(-977.37 -216.761)" fill="url(#linear-gradient-10)"/>
      <path id="Caminho_18" data-name="Caminho 18" d="M1008.67,451.61c1.334,12.286,2.724,23.088,4.294,30.636l10.083-19.863Z" transform="translate(-881.94 -224.011)" fill="url(#linear-gradient-11)"/>
      <path id="Caminho_19" data-name="Caminho 19" d="M1079.687,313.359v6.148c-14.818,0-20.02-17.34-20.02-17.34C1069.6,313.359,1079.687,313.359,1079.687,313.359Z" transform="translate(-986.815 -215.917)" fill="url(#linear-gradient-12)"/>
      <path id="Caminho_20" data-name="Caminho 20" d="M1141.288,446.567h.01c-.64,3.077-1.246,5.893-1.793,8.388a14.91,14.91,0,0,1-8.251,5.412l-10.636,2.956-8.107-6.823C1116.673,449.177,1125.037,441.541,1141.288,446.567Z" transform="translate(-1098.406 -223.651)" fill="url(#linear-gradient-13)"/>
      <path id="Caminho_21" data-name="Caminho 21" d="M1131.535,472.435s-5.552,2.429-7.865-4.857,3.189-14.572,9.169-14.687S1130.033,463.644,1131.535,472.435Z" transform="translate(-1102.103 -224.081)" fill="#eaad03"/>
      <path id="Caminho_22" data-name="Caminho 22" d="M1103.44,459.214a19.31,19.31,0,0,0,9.107,0c4.944-1.214,7.2-5.2,4.684-6.158s-4.858.26-9.194-3.9-15.265-4.337-18.214,3.729-4.944,22.812,8.5,24.632,26.54-.693,28.044-4.279S1103.44,459.214,1103.44,459.214Z" transform="translate(-1060.044 -223.726)" fill="#fed300"/>
      <path id="Caminho_23" data-name="Caminho 23" d="M1018.247,366.73c3.481,22.539,6.025,54.65,8.8,80.282,0,0,4.294-27.372,5.24-36.519s-6.942-4.729-7.255-22.388C1024.811,375.659,1021.917,374.656,1018.247,366.73Z" transform="translate(-900.313 -219.414)" fill="#c9e2f4"/>
      <path id="Caminho_24" data-name="Caminho 24" d="M1110.7,485.91l-5.836,1.443a151.275,151.275,0,0,0-11.649-10.653,175.115,175.115,0,0,0-24.374-17.182,1.206,1.206,0,0,1,.024-2.109l1.49-.81.013.018c.016,0,.044.022.076.026a22.078,22.078,0,0,0,10.128,1.376c1.272-.126,1.845-.789,2.839-1.206C1102.966,466.565,1110.7,485.91,1110.7,485.91Z" transform="translate(-1025.932 -224.282)" fill="#1d164d"/>
      <path id="Caminho_25" data-name="Caminho 25" d="M1044.37,364.13c.946,5.77,1.788,9.335,1.788,9.335,19.55,8.1,36.453.53,41.5-2.185-2.942,1.419-10.376,3.859-24.478,1.948C1047.8,371.139,1044.919,366.05,1044.37,364.13Z" transform="translate(-980.321 -219.273)" fill="#c9e2f4"/>
      <path id="Caminho_26" data-name="Caminho 26" d="M1022.7,493.514l4.047,6.747a21.658,21.658,0,0,0,14.712,10.174c12.29,2.227,34.136,4.832,54.445.392a21.746,21.746,0,0,0,13.49-9.222l5.373-8.111a2.681,2.681,0,0,0-1.44-4.046c-10.912-3.366-47-12.367-89.074.1A2.693,2.693,0,0,0,1022.7,493.514Z" transform="translate(-987.023 -225.72)" fill="url(#linear-gradient-14)"/>
      <path id="Caminho_27" data-name="Caminho 27" d="M1022.74,490.745a2.593,2.593,0,0,0,1.485,1.154,141.951,141.951,0,0,0,23.693,4.975c4.512.577,9.477,1.021,14.821,1.22a161.528,161.528,0,0,0,20.345-.549q4.37-.4,8.91-1.059a153.1,153.1,0,0,0,21.3-4.691,2.7,2.7,0,0,0,1.542-1.192,2.644,2.644,0,0,0-1.494-1.154,133.526,133.526,0,0,0-15.389-3.689c-4.436-.813-9.543-1.542-15.2-2.024a158.584,158.584,0,0,0-58.481,5.817A2.649,2.649,0,0,0,1022.74,490.745Z" transform="translate(-987.037 -225.72)" fill="#4a4975"/>
      <path id="Caminho_28" data-name="Caminho 28" d="M1046.89,497.3a161.7,161.7,0,0,0,44.076-.388c-5.41-3.575-13.156-5.817-21.754-5.817C1060.311,491.1,1052.319,493.5,1046.89,497.3Z" transform="translate(-986.009 -226.151)" fill="#eaf5ff"/>
      <ellipse id="Elipse_1" data-name="Elipse 1" cx="9.143" cy="3.139" rx="9.143" ry="3.139" transform="translate(73.776 263.138)" fill="#fed300"/>
      <path id="Caminho_29" data-name="Caminho 29" d="M962.84,492.134a161.536,161.536,0,0,0,20.345-.549A50.049,50.049,0,0,0,998.053,479.8c11.681-13.535,14.424-30.532,21.13-38.741,9.7-11.87,37.6-6.574,47.528-22.18a69.566,69.566,0,0,1,4.88-6.763c-4.493-15.578-14.225-29.832-21.546-39-.6,3.178-1.22,6.6-1.939,10.291-5.987,30.9-26.483,28.687-47.916,34.684s-9.78,23.324-11.35,45a26.391,26.391,0,0,1-5.987,14.679C976.952,485.2,968.118,489.845,962.84,492.134Z" transform="translate(-887.138 -219.76)" fill="#fff"/>
    </g>
  </g>
  <g id="bag" transform="translate(0 353.476)">
    <g id="Grupo_20" data-name="Grupo 20">
      <g id="Grupo_7" data-name="Grupo 7" transform="translate(6.816 12.548)">
        <rect id="Retângulo_1" data-name="Retângulo 1" width="55.252" height="72.839" transform="translate(0 21.003)" fill="url(#linear-gradient-15)"/>
        <rect id="Retângulo_2" data-name="Retângulo 2" width="17.393" height="72.839" transform="translate(0 21.003)" fill="url(#linear-gradient-16)"/>
        <path id="Caminho_30" data-name="Caminho 30" d="M1349.1,408.314h8.7l-4.348-7.661-4.348-7.661-4.348,7.661-4.348,7.661Z" transform="translate(-1340.405 -387.311)" fill="#4099f1"/>
        <path id="Caminho_31" data-name="Caminho 31" d="M1338.238,392.992H1300.4l8.7,15.322h37.836Z" transform="translate(-1291.706 -387.311)" fill="url(#linear-gradient-17)"/>
        <rect id="Retângulo_3" data-name="Retângulo 3" width="37.836" height="5.681" transform="translate(8.696)" fill="#acd4f3"/>
        <rect id="Retângulo_4" data-name="Retângulo 4" width="30.095" height="43.65" transform="translate(25.157 31.556)" fill="#fff" opacity="0.3"/>
      </g>
      <g id="Grupo_9" data-name="Grupo 9" transform="translate(45.479 6.385)">
        <path id="Caminho_32" data-name="Caminho 32" d="M1316.245,461.475c.063-.581-6.8-55.2-12.59-70.336s-16.509-15.37-16.588,7.094,9.079,65.806,9.079,65.806Z" transform="translate(-1287.066 -380.469)" fill="url(#linear-gradient-18)"/>
        <g id="Grupo_8" data-name="Grupo 8" transform="translate(3.99 14.384)">
          <path id="Caminho_33" data-name="Caminho 33" d="M1302.915,395.864s8.638,2.71,10.088,8.213C1313,404.077,1314.9,394.209,1302.915,395.864Z" transform="translate(-1302.915 -395.677)" fill="#eaa492"/>
          <path id="Caminho_34" data-name="Caminho 34" d="M1301.11,414.989s8.638,2.71,10.088,8.213C1311.2,423.2,1313.1,413.334,1301.11,414.989Z" transform="translate(-1299.403 -396.713)" fill="#eaa492"/>
          <path id="Caminho_35" data-name="Caminho 35" d="M1299.469,435.1s8.639,2.71,10.088,8.213C1309.557,443.317,1311.46,433.449,1299.469,435.1Z" transform="translate(-1296.21 -397.803)" fill="#eaa492"/>
        </g>
      </g>
      <g id="Grupo_11" data-name="Grupo 11" transform="translate(80.093)">
        <path id="Caminho_36" data-name="Caminho 36" d="M1248.114,460.914c-.068-.625,7.319-59.42,13.552-75.709s17.77-16.545,17.855,7.636-9.772,70.834-9.772,70.834Z" transform="translate(-1248.114 -373.719)" fill="url(#linear-gradient-19)"/>
        <g id="Grupo_10" data-name="Grupo 10" transform="translate(12.627 15.484)">
          <path id="Caminho_37" data-name="Caminho 37" d="M1263.632,390.29s-9.3,2.917-10.859,8.84C1252.773,399.13,1250.726,388.509,1263.632,390.29Z" transform="translate(-1249.145 -390.089)" fill="#eaa492"/>
          <path id="Caminho_38" data-name="Caminho 38" d="M1265.575,410.876s-9.3,2.917-10.859,8.84C1254.716,419.716,1252.669,409.094,1265.575,410.876Z" transform="translate(-1252.926 -391.204)" fill="#eaa492"/>
          <path id="Caminho_39" data-name="Caminho 39" d="M1267.342,432.528s-9.3,2.917-10.859,8.84C1256.483,441.368,1254.436,430.747,1267.342,432.528Z" transform="translate(-1256.364 -392.377)" fill="#eaa492"/>
        </g>
      </g>
      <g id="Grupo_12" data-name="Grupo 12" transform="translate(69.906 23.195)">
        <path id="Caminho_40" data-name="Caminho 40" d="M1291,423.87a9.768,9.768,0,0,0-6.551-4.887c-4.961-1.261-10.594,1.236-12.014,10.441s1.04,38.269,1.04,38.269H1291Z" transform="translate(-1271.996 -399.349)" fill="url(#linear-gradient-20)"/>
        <path id="Caminho_41" data-name="Caminho 41" d="M1275.018,413.383s.157-15.528,3.625-15.133,0,17.1,0,17.1,5.36-9.544,7.172-8.555-3.5,12.023-6.321,13.679-5.659.946-7.236-4.966-2.207-9.695-.315-10.089S1275.018,413.383,1275.018,413.383Z" transform="translate(-1266.025 -398.242)" fill="url(#linear-gradient-21)"/>
      </g>
      <g id="Grupo_15" data-name="Grupo 15" transform="translate(41.774 55.176)">
        <path id="Caminho_42" data-name="Caminho 42" d="M1289.337,437.593s1.833-4.772,5.6-5.3a37.084,37.084,0,0,1,8.174,0,16.241,16.241,0,0,1-4.936,6.422c-3.5,2.654-7.391,2.116-8.445,1.429S1289.337,437.593,1289.337,437.593Z" transform="translate(-1272.182 -432.055)" fill="url(#linear-gradient-22)"/>
        <path id="Caminho_43" data-name="Caminho 43" d="M1315.162,467.755a22.549,22.549,0,0,0,4.564-15.71c-.744-9.66-6.688-10.775-9.607-10.085s-6.847,2.335-10.137,1.221-7.113-3.556-11.146-1.009-5.025,8.564-4.458,13.8,4.388,11.783,6.723,13.508Z" transform="translate(-1284.231 -432.542)" fill="url(#linear-gradient-23)"/>
        <path id="Caminho_44" data-name="Caminho 44" d="M1308.323,442.172a7.229,7.229,0,0,1,5.616-.919c-1.984,1.626.791,6.263-.027,7.43-.99,1.415-3.185-1.84-2.6,1.344s1.185,4.53-.609,4.6-.895,2.972,1.419,8.351c1.727,4.015,6.448,5.348,8.73,5.766l-10.265.736c-2.335-1.725-6.157-8.271-6.723-13.508S1304.289,444.72,1308.323,442.172Z" transform="translate(-1303.718 -432.542)" opacity="0.3" fill="url(#linear-gradient-24)"/>
        <g id="Grupo_13" data-name="Grupo 13" transform="translate(3.925 14.735)">
          <path id="Caminho_45" data-name="Caminho 45" d="M1316.146,456.38l.057,0a.532.532,0,0,0,.471-.585,14.475,14.475,0,0,1,.84-7.4.531.531,0,0,0-.958-.457,15.541,15.541,0,0,0-.937,7.971A.531.531,0,0,0,1316.146,456.38Z" transform="translate(-1315.492 -447.634)" fill="#fff"/>
        </g>
        <path id="Caminho_46" data-name="Caminho 46" d="M1284.231,468.6c.733-.766,1.061-2.181,2.4-1.872,1.839.425.212-1.486,1.2-3.114s2.193.425,3.962-.778-2.9-6.157-1.415-7.061,1.628,3.1,3.467,1.611c1.289-1.04,1.311-7.432,1.208-11.166a15.342,15.342,0,0,1,1.588,6.106,22.55,22.55,0,0,1-4.565,15.71Z" transform="translate(-1261.149 -432.822)" fill="#c7283a"/>
        <g id="Grupo_14" data-name="Grupo 14" transform="translate(6.455 12.438)">
          <path id="Caminho_47" data-name="Caminho 47" d="M1312.918,446.7a.524.524,0,0,0,.283-.082,1.979,1.979,0,0,1,1.136-.349.531.531,0,1,0,0-1.061,3.032,3.032,0,0,0-1.7.513.531.531,0,0,0,.284.98Z" transform="translate(-1312.387 -445.205)" fill="#fff"/>
        </g>
        <path id="Caminho_48" data-name="Caminho 48" d="M1303.05,443.845a22.76,22.76,0,0,0,4.678-.716c2.4-.65,2.894.716-1.14,1.777s-6.36.637-8.43-.557-1.512-1.725-.212-1.8S1300.782,444.068,1303.05,443.845Z" transform="translate(-1285.884 -432.623)" fill="#c7283a"/>
        <path id="Caminho_49" data-name="Caminho 49" d="M1305.442,444.1s.424.495.76,0a20.278,20.278,0,0,0-.142-5.485,9.3,9.3,0,0,0-1.179-3.287.883.883,0,0,0-1.278-.241l-.028.021a.881.881,0,0,0-.176,1.241,9.932,9.932,0,0,1,1.468,2.912A12.949,12.949,0,0,1,1305.442,444.1Z" transform="translate(-1288.717 -432.21)" fill="url(#linear-gradient-25)"/>
      </g>
      <g id="Grupo_19" data-name="Grupo 19" transform="translate(17.026 62.803)">
        <g id="Grupo_16" data-name="Grupo 16" transform="translate(18.399 6.504)">
          <path id="Caminho_50" data-name="Caminho 50" d="M1297.374,453.95a10.427,10.427,0,0,1,.792-3.284c.57-.874.443-1.282.035-2.178a7.335,7.335,0,0,0-.7-1.171.773.773,0,0,0-1.176-.094l-.332.332a2.339,2.339,0,0,0-.656,1.97,4.233,4.233,0,0,1-.859,3.433c-1.6,1.783-3.87,3.294-3.949,7.838s2.318,10.1,5.824,14.536,11.856,9.712,18.161,9.8,7.567-.725,8.583-1.757,1.7-1.65,2.414-1.662c0,0,1.266-.914.918-1.79a2.774,2.774,0,0,0-1.605-1.6,6.506,6.506,0,0,1-1.883-.941c-.839-.594-5.838-1.493-9.262-2.541s-6.712-2.38-8.351-6.348-3.65-9.785-5.044-11.791A8.7,8.7,0,0,0,1297.374,453.95Z" transform="translate(-1290.524 -446.995)" fill="#fed300"/>
          <path id="Caminho_51" data-name="Caminho 51" d="M1302.273,462.367c.568,5.792,1.439,8.065,3.2,9.893s.943-.221,1.893-.053-.22,2.247,1.063,3.478.71-1.215,1.89-1.041,5.319,4.215,6.986,3.3a15.022,15.022,0,0,1,2.764-1.331c-1.716-.412-3.684-.874-5.3-1.37-3.424-1.048-6.713-2.38-8.352-6.348s-3.65-9.785-5.044-11.791a8.7,8.7,0,0,0-2.907-2.751S1301.7,456.574,1302.273,462.367Z" transform="translate(-1291.613 -447.393)" fill="#fff" opacity="0.3"/>
          <path id="Caminho_52" data-name="Caminho 52" d="M1323.124,483.373c1.017-1.033,1.7-1.65,2.414-1.662a2.7,2.7,0,0,0,.951-1.241h0a2,2,0,0,1-2.191.217c-.5-.349-.506.838-2.1,1.449s-4.007-1.515-7.047-.374-2.986.205-2.117-1.275-6.644-2.06-10.078-3.067-3.741-6.445-8.326-11.218-2.355-9.621-.492-10.832a4.98,4.98,0,0,0,2.5-4.923,1.72,1.72,0,0,1,1.589-1.955l0,0a7.353,7.353,0,0,0-.7-1.171.773.773,0,0,0-1.176-.094l-.332.332a2.339,2.339,0,0,0-.656,1.97,4.233,4.233,0,0,1-.859,3.433c-1.6,1.783-3.87,3.294-3.949,7.838s2.318,10.1,5.823,14.536,11.856,9.712,18.161,9.8S1322.107,484.406,1323.124,483.373Z" transform="translate(-1290.554 -446.995)" fill="#eaad03"/>
          <path id="Caminho_53" data-name="Caminho 53" d="M1322.07,450.068a1.977,1.977,0,0,0-.272-1.58,7.353,7.353,0,0,0-.7-1.171.77.77,0,0,0-.823-.3c-.615.775.241,1.971.979,2.62A1.311,1.311,0,0,0,1322.07,450.068Z" transform="translate(-1314.121 -446.995)" fill="#1d164d"/>
          <path id="Caminho_54" data-name="Caminho 54" d="M1291.5,481.765a2.862,2.862,0,0,0-.407-.714,2.214,2.214,0,0,0-.573,1.24l.062,1.265S1291.852,482.642,1291.5,481.765Z" transform="translate(-1255.602 -448.84)" fill="#1d164d"/>
        </g>
        <g id="Grupo_17" data-name="Grupo 17" transform="translate(9.079 3.887)">
          <path id="Caminho_55" data-name="Caminho 55" d="M1307.228,451.183a10.4,10.4,0,0,1,.792-3.284c.57-.873.443-1.281.035-2.177a7.468,7.468,0,0,0-.7-1.172.774.774,0,0,0-1.176-.094l-.332.332a2.339,2.339,0,0,0-.655,1.971,4.231,4.231,0,0,1-.859,3.432c-1.6,1.783-3.87,3.3-3.949,7.839s2.318,10.1,5.823,14.535,11.856,9.712,18.161,9.8,7.566-.725,8.584-1.757,1.7-1.65,2.414-1.661c0,0,1.266-.915.918-1.79a2.775,2.775,0,0,0-1.605-1.6,6.515,6.515,0,0,1-1.884-.94c-.838-.594-5.837-1.493-9.261-2.541s-6.712-2.38-8.352-6.348-3.649-9.786-5.043-11.792A8.7,8.7,0,0,0,1307.228,451.183Z" transform="translate(-1300.378 -444.229)" fill="#fed300"/>
          <path id="Caminho_56" data-name="Caminho 56" d="M1312.127,459.6c.568,5.792,1.438,8.065,3.2,9.893s.944-.22,1.894-.053-.22,2.247,1.063,3.479.709-1.215,1.89-1.042,5.319,4.216,6.986,3.3a15.017,15.017,0,0,1,2.764-1.332c-1.716-.411-3.684-.874-5.3-1.369-3.423-1.048-6.711-2.38-8.352-6.348s-3.649-9.786-5.043-11.792a8.7,8.7,0,0,0-2.907-2.751S1311.558,453.808,1312.127,459.6Z" transform="translate(-1301.467 -444.627)" fill="#fff" opacity="0.3"/>
          <path id="Caminho_57" data-name="Caminho 57" d="M1332.978,480.606c1.017-1.032,1.7-1.65,2.414-1.661a2.711,2.711,0,0,0,.951-1.241h0a2,2,0,0,1-2.192.217c-.495-.35-.505.838-2.094,1.449s-4.008-1.515-7.047-.374-2.986.205-2.117-1.275-6.645-2.06-10.078-3.067-3.741-6.446-8.326-11.218-2.355-9.621-.492-10.833a4.98,4.98,0,0,0,2.5-4.922,1.72,1.72,0,0,1,1.589-1.956l0,0a7.477,7.477,0,0,0-.7-1.172.774.774,0,0,0-1.176-.094l-.332.332a2.338,2.338,0,0,0-.655,1.971,4.231,4.231,0,0,1-.859,3.432c-1.6,1.783-3.87,3.3-3.949,7.839s2.318,10.1,5.823,14.535,11.856,9.712,18.161,9.8S1331.96,481.639,1332.978,480.606Z" transform="translate(-1300.408 -444.229)" fill="#eaad03"/>
          <path id="Caminho_58" data-name="Caminho 58" d="M1331.924,447.3a1.976,1.976,0,0,0-.272-1.58,7.466,7.466,0,0,0-.7-1.172.771.771,0,0,0-.823-.3c-.615.775.24,1.971.979,2.62A1.317,1.317,0,0,0,1331.924,447.3Z" transform="translate(-1323.976 -444.229)" fill="#1d164d"/>
          <path id="Caminho_59" data-name="Caminho 59" d="M1301.358,479a2.875,2.875,0,0,0-.407-.714,2.211,2.211,0,0,0-.573,1.24l.062,1.265S1301.706,479.875,1301.358,479Z" transform="translate(-1265.456 -446.073)" fill="#1d164d"/>
        </g>
        <g id="Grupo_18" data-name="Grupo 18">
          <path id="Caminho_60" data-name="Caminho 60" d="M1316.826,447.073a10.409,10.409,0,0,1,.793-3.284c.57-.873.443-1.281.035-2.177a7.469,7.469,0,0,0-.7-1.172.774.774,0,0,0-1.176-.094l-.332.332a2.338,2.338,0,0,0-.655,1.971,4.23,4.23,0,0,1-.859,3.432c-1.6,1.783-3.87,3.3-3.949,7.839s2.318,10.1,5.823,14.535,11.856,9.712,18.161,9.8,7.566-.725,8.583-1.757,1.7-1.65,2.414-1.661c0,0,1.266-.915.918-1.79a2.776,2.776,0,0,0-1.605-1.6,6.514,6.514,0,0,1-1.884-.94c-.838-.594-5.837-1.493-9.261-2.541s-6.712-2.38-8.352-6.348-3.649-9.786-5.043-11.792A8.7,8.7,0,0,0,1316.826,447.073Z" transform="translate(-1309.977 -440.119)" fill="#fed300"/>
          <path id="Caminho_61" data-name="Caminho 61" d="M1321.727,455.49c.568,5.792,1.438,8.065,3.2,9.892s.944-.22,1.894-.053-.22,2.247,1.063,3.479.709-1.215,1.89-1.042,5.319,4.216,6.986,3.3a15,15,0,0,1,2.764-1.332c-1.716-.411-3.684-.874-5.3-1.369-3.423-1.048-6.712-2.38-8.352-6.348s-3.649-9.786-5.043-11.792a8.7,8.7,0,0,0-2.909-2.751S1321.158,449.7,1321.727,455.49Z" transform="translate(-1311.067 -440.517)" fill="#fff" opacity="0.3"/>
          <path id="Caminho_62" data-name="Caminho 62" d="M1342.578,476.5c1.017-1.032,1.7-1.65,2.414-1.661a2.7,2.7,0,0,0,.95-1.242h0a2,2,0,0,1-2.191.217c-.495-.35-.506.838-2.094,1.449s-4.007-1.516-7.047-.374-2.986.205-2.117-1.275-6.646-2.06-10.078-3.067-3.741-6.446-8.327-11.218-2.354-9.621-.491-10.833a4.98,4.98,0,0,0,2.5-4.922,1.72,1.72,0,0,1,1.589-1.956l0,0a7.46,7.46,0,0,0-.7-1.172.774.774,0,0,0-1.176-.094l-.332.332a2.338,2.338,0,0,0-.655,1.971,4.231,4.231,0,0,1-.859,3.432c-1.6,1.783-3.87,3.3-3.949,7.839s2.318,10.1,5.823,14.535,11.856,9.712,18.161,9.8S1341.56,477.529,1342.578,476.5Z" transform="translate(-1310.008 -440.119)" fill="#eaad03"/>
          <path id="Caminho_63" data-name="Caminho 63" d="M1341.523,443.192a1.977,1.977,0,0,0-.273-1.581,7.478,7.478,0,0,0-.7-1.172.771.771,0,0,0-.823-.3c-.615.775.24,1.971.979,2.62A1.317,1.317,0,0,0,1341.523,443.192Z" transform="translate(-1333.575 -440.119)" fill="#1d164d"/>
          <path id="Caminho_64" data-name="Caminho 64" d="M1310.957,474.889a2.872,2.872,0,0,0-.406-.714,2.212,2.212,0,0,0-.573,1.24l.062,1.265S1311.305,475.765,1310.957,474.889Z" transform="translate(-1275.055 -441.963)" fill="#1d164d"/>
        </g>
      </g>
      <rect id="Retângulo_5" data-name="Retângulo 5" width="107.854" height="102.019" transform="translate(0 84.577)" fill="url(#linear-gradient-26)"/>
      <rect id="Retângulo_6" data-name="Retângulo 6" width="28.848" height="102.019" transform="translate(0 84.577)" fill="url(#linear-gradient-27)"/>
    </g>
  </g>
  <g id="stove" transform="translate(64.426 510.593)">
    <g id="Grupo_31" data-name="Grupo 31">
      <path id="Caminho_65" data-name="Caminho 65" d="M984.362,570.1l3-6.278a16.688,16.688,0,0,1,15.054-9.487h260.429a16.686,16.686,0,0,1,15.054,9.487l3,6.278Z" transform="translate(-984.362 -540.618)" fill="url(#linear-gradient-28)"/>
      <g id="Grupo_25" data-name="Grupo 25" transform="translate(168.363)">
        <g id="Grupo_23" data-name="Grupo 23" transform="translate(0 2.759)">
          <g id="Grupo_21" data-name="Grupo 21" transform="translate(69.036)">
            <path id="Caminho_66" data-name="Caminho 66" d="M1039.883,553.706h4.729a10.968,10.968,0,0,0-10.956-10.956H1004.83v4.729h28.826A6.233,6.233,0,0,1,1039.883,553.706Z" transform="translate(-1004.83 -542.75)" fill="#1d164d"/>
          </g>
          <g id="Grupo_22" data-name="Grupo 22">
            <path id="Caminho_67" data-name="Caminho 67" d="M1077.82,553.706h4.729a6.233,6.233,0,0,1,6.226-6.226H1117.6V542.75h-28.826A10.968,10.968,0,0,0,1077.82,553.706Z" transform="translate(-1077.82 -542.75)" fill="#1d164d"/>
          </g>
        </g>
        <g id="Grupo_24" data-name="Grupo 24" transform="translate(52.044)">
          <rect id="Retângulo_7" data-name="Retângulo 7" width="4.729" height="13.715" fill="#1d164d"/>
        </g>
      </g>
      <g id="Grupo_30" data-name="Grupo 30" transform="translate(22.355)">
        <g id="Grupo_28" data-name="Grupo 28" transform="translate(0 2.759)">
          <g id="Grupo_26" data-name="Grupo 26" transform="translate(69.036)">
            <path id="Caminho_68" data-name="Caminho 68" d="M1194.253,553.706h4.729a10.968,10.968,0,0,0-10.956-10.956H1159.2v4.729h28.826A6.233,6.233,0,0,1,1194.253,553.706Z" transform="translate(-1159.2 -542.75)" fill="#1d164d"/>
          </g>
          <g id="Grupo_27" data-name="Grupo 27">
            <path id="Caminho_69" data-name="Caminho 69" d="M1232.19,553.706h4.729a6.233,6.233,0,0,1,6.226-6.226h28.826V542.75h-28.826A10.968,10.968,0,0,0,1232.19,553.706Z" transform="translate(-1232.19 -542.75)" fill="#1d164d"/>
          </g>
        </g>
        <g id="Grupo_29" data-name="Grupo 29" transform="translate(52.045)">
          <rect id="Retângulo_8" data-name="Retângulo 8" width="4.729" height="13.715" fill="#1d164d"/>
        </g>
      </g>
    </g>
  </g>
  <g id="blender" transform="translate(382.59 379.398)">
    <g id="Grupo_44" data-name="Grupo 44">
      <ellipse id="Elipse_2" data-name="Elipse 2" cx="3.35" cy="3.35" rx="3.35" ry="3.35" transform="translate(27.863)" fill="url(#linear-gradient-29)"/>
      <rect id="Retângulo_9" data-name="Retângulo 9" width="62.425" height="5.044" rx="2.522" transform="translate(0 3.35)" fill="url(#linear-gradient-30)"/>
      <path id="Caminho_70" data-name="Caminho 70" d="M898.167,410l8.04,102.15h41.3L955.546,410Z" transform="translate(-895.643 -401.606)" opacity="0.5" fill="url(#linear-gradient-31)"/>
      <path id="Caminho_71" data-name="Caminho 71" d="M906.74,518h40.475a6.364,6.364,0,0,1,6.364,6.365v40.553a3.211,3.211,0,0,1-3.211,3.212h-6.721l-2.367-3.18a4.722,4.722,0,0,0-3.79-1.9H916.465a4.722,4.722,0,0,0-3.79,1.9l-2.367,3.18h-6.721a3.212,3.212,0,0,1-3.212-3.212V524.365A6.365,6.365,0,0,1,906.74,518Z" transform="translate(-895.764 -407.456)" fill="url(#linear-gradient-32)"/>
      <ellipse id="Elipse_3" data-name="Elipse 3" cx="11.35" cy="11.35" rx="11.35" ry="11.35" transform="translate(19.863 117.401)" fill="url(#linear-gradient-33)"/>
      <rect id="Retângulo_10" data-name="Retângulo 10" width="2.838" height="17.144" rx="1.419" transform="translate(38.278 133.81) rotate(135)" fill="url(#linear-gradient-34)"/>
      <path id="Caminho_72" data-name="Caminho 72" d="M889.6,424h4.982a9.931,9.931,0,0,1,9.932,9.931v37.3a14.41,14.41,0,0,1-4.221,10.19L883.5,498.219l.482-13.527,6.2-6.2a18.711,18.711,0,0,0,5.481-13.233V438.729a2.591,2.591,0,0,0-2.591-2.592h-5.271Z" transform="translate(-830.74 -402.364)" fill="url(#linear-gradient-35)"/>
      <path id="Caminho_73" data-name="Caminho 73" d="M898.855,418.749,898.167,410h57.38l-.689,8.749Z" transform="translate(-895.643 -401.606)" fill="url(#linear-gradient-36)"/>
      <path id="Caminho_74" data-name="Caminho 74" d="M923.7,506.463v1.826l4.315,2.669v-8.383h1.892v8.383l4.315-2.669v-1.826h1.892v2.525l-7.153,4.424-7.153-4.424v-2.525Z" transform="translate(-898.58 -406.62)" fill="#272256"/>
      <path id="Caminho_75" data-name="Caminho 75" d="M948.336,512.75l-.391,4.966h-41.3l-.391-4.966Z" transform="translate(-896.082 -407.171)" fill="#c9e2f4"/>
      <g id="Grupo_33" data-name="Grupo 33" transform="translate(30.222 71.8)">
        <path id="Caminho_76" data-name="Caminho 76" d="M912.979,485.26c-1.872,6.465,1.343,8.556,5.46,8.647s8.211-1.767,9.669-4.231a3.629,3.629,0,0,0-.659-4.431c-.964.476-2.578-.769-3.309-2.519s-2.783-1.878-2.722-2.513,1.229-.8,1.229-.8a9.389,9.389,0,0,0-3.424-2.32C917.567,476.648,914.85,478.8,912.979,485.26Z" transform="translate(-912.433 -477.037)" fill="url(#linear-gradient-37)"/>
        <path id="Caminho_77" data-name="Caminho 77" d="M913.719,493.588c1.211.225,2.056.218,1.426-1.2s-.635-2.477-.124-2.862.231.489,1.76.54c1.121.037-.173,2.046,3.517.778,2.851-.979,1.6-5.125,1.6-5.125h0a3.625,3.625,0,0,1,.658,4.429c-1.458,2.464-5.552,4.321-9.669,4.231-.152,0-.3-.009-.453-.018C912.859,493.939,913.107,493.475,913.719,493.588Z" transform="translate(-906.879 -477.507)" fill="#c7283a"/>
        <path id="Caminho_78" data-name="Caminho 78" d="M919.08,485.26c-1.238,4.279-.249,6.641,1.755,7.777a3.777,3.777,0,0,1-.278-3.157c1.039-3.173,4.533-1.726,3.55-4.756s-.831-3.212.5-3.49-.276-.925-.237-2.331a.444.444,0,0,1,0-.072c.033-.484.267-.4.584-.149.5.4,1.2,1.228,1.64.953.736-.456.55,1.169,2.352,1.236-.742-.478-1.469-.675-1.432-1.057.061-.635,1.229-.8,1.229-.8a9.388,9.388,0,0,0-3.424-2.32C923.668,476.648,920.951,478.8,919.08,485.26Z" transform="translate(-918.534 -477.037)" opacity="0.3" fill="url(#linear-gradient-38)"/>
        <path id="Caminho_79" data-name="Caminho 79" d="M917.394,481.3a2.41,2.41,0,0,0,.783-1.247c.278-.9.454-.947.708-.711s.258,1.56-1.032,2.636c0,0,1.949,1.414,1.846,3.384-.964.476-2.579-.771-3.309-2.52s-2.783-1.878-2.722-2.513,1.23-.8,1.23-.8S916.067,479.526,917.394,481.3Z" transform="translate(-904.683 -477.155)" fill="url(#linear-gradient-39)"/>
        <g id="Grupo_32" data-name="Grupo 32" transform="translate(2.976 1.77)">
          <path id="Caminho_80" data-name="Caminho 80" d="M915.3,490.709a.28.28,0,0,0,.411.38,7.174,7.174,0,0,0,.432-.882A7.229,7.229,0,0,0,915.3,490.709Z" transform="translate(-905.575 -479.52)" fill="#fbda91"/>
          <path id="Caminho_81" data-name="Caminho 81" d="M917.784,488.752a.279.279,0,1,0,.41.379,7.168,7.168,0,0,0,.432-.881A7.22,7.22,0,0,0,917.784,488.752Z" transform="translate(-910.405 -479.414)" fill="#fbda91"/>
          <path id="Caminho_82" data-name="Caminho 82" d="M921.641,489.457a.279.279,0,1,0,.41.379,7.17,7.17,0,0,0,.432-.881A7.145,7.145,0,0,0,921.641,489.457Z" transform="translate(-917.91 -479.452)" fill="#fbda91"/>
          <path id="Caminho_83" data-name="Caminho 83" d="M925.334,482.237a.283.283,0,1,0,.362.429,9.16,9.16,0,0,0,.64-.907A9,9,0,0,0,925.334,482.237Z" transform="translate(-925.211 -479.062)" fill="#f9e2b2"/>
          <path id="Caminho_84" data-name="Caminho 84" d="M923.777,486.144a.279.279,0,1,0,.411.379,7.166,7.166,0,0,0,.432-.881A7.143,7.143,0,0,0,923.777,486.144Z" transform="translate(-922.066 -479.273)" fill="#f9e2b2"/>
          <path id="Caminho_85" data-name="Caminho 85" d="M922.173,482.945a.279.279,0,0,0,.411.379,7.157,7.157,0,0,0,.432-.881A7.136,7.136,0,0,0,922.173,482.945Z" transform="translate(-918.945 -479.099)" fill="#fbda91"/>
          <path id="Caminho_86" data-name="Caminho 86" d="M922.755,479.336c.131-.023.378-.089.584-.149C923.022,478.933,922.788,478.852,922.755,479.336Z" transform="translate(-919.89 -478.912)" fill="#fbda91"/>
          <path id="Caminho_87" data-name="Caminho 87" d="M922.4,479.137c0,.118.14.21.3.2a.633.633,0,0,0,.064-.008c.033-.484.267-.4.584-.149.172-.047.313-.092.334-.1a9.072,9.072,0,0,0-1-.177C922.525,478.915,922.4,479.017,922.4,479.137Z" transform="translate(-919.905 -478.908)" fill="#f9e2b2"/>
          <path id="Caminho_88" data-name="Caminho 88" d="M922.33,492.43a.28.28,0,0,0,.411.38,7.152,7.152,0,0,0,.432-.882A7.22,7.22,0,0,0,922.33,492.43Z" transform="translate(-919.253 -479.613)" fill="#fbda91"/>
        </g>
        <path id="Caminho_89" data-name="Caminho 89" d="M913.667,481.511c.01,0,.441-.177,1.5.815s1.4,2.01,1.932,2.079c.3.039.44-.532.509-1.045a3.487,3.487,0,0,1,.662,2.127c-.964.476-2.579-.771-3.309-2.52A3.186,3.186,0,0,0,913.667,481.511Z" transform="translate(-903.249 -477.278)" fill="#6bbc61"/>
      </g>
      <g id="Grupo_35" data-name="Grupo 35" transform="translate(12.789 33.516)">
        <path id="Caminho_90" data-name="Caminho 90" d="M940.676,449.242c5.292,1.028,6.73-1.687,6.506-4.978s-2-6.425-4.071-7.412a2.908,2.908,0,0,0-3.488.845c.449.735-.428,2.113-1.772,2.821s-1.3,2.355-1.809,2.352-.727-.923-.727-.923a7.517,7.517,0,0,0-1.605,2.9C933.475,446.2,935.383,448.213,940.676,449.242Z" transform="translate(-933.691 -436.561)" fill="url(#linear-gradient-40)"/>
        <path id="Caminho_91" data-name="Caminho 91" d="M940.565,443.655c.092-.982.026-1.656-1.063-1.051s-1.931.685-2.275.3.374-.218.3-1.442c-.05-.9,1.645-.009.369-2.862-.986-2.2-4.2-.906-4.2-.906h0a2.9,2.9,0,0,1,3.487-.844c2.071.987,3.847,4.119,4.071,7.412.008.121.014.242.017.362C940.906,444.316,940.518,444.151,940.565,443.655Z" transform="translate(-927.763 -436.561)" fill="#c7283a"/>
        <path id="Caminho_92" data-name="Caminho 92" d="M941.152,449.533c3.5.68,5.316-.279,6.078-1.959a3.029,3.029,0,0,1-2.5.448c-2.607-.6-1.7-3.493-4.049-2.49s-2.5.894-2.821-.149-.718.287-1.843.358c-.02,0-.039,0-.057,0-.389.008-.341-.183-.162-.455.283-.425.893-1.044.642-1.377-.416-.554.894-.523.818-1.965-.327.626-.433,1.22-.741,1.218-.511,0-.727-.923-.727-.923a7.517,7.517,0,0,0-1.605,2.9C933.951,446.491,935.859,448.5,941.152,449.533Z" transform="translate(-934.167 -436.852)" opacity="0.3" fill="url(#linear-gradient-41)"/>
        <path id="Caminho_93" data-name="Caminho 93" d="M943.33,439.893a1.932,1.932,0,0,0-1.051-.534c-.737-.158-.788-.294-.618-.515s1.226-.318,2.176.634a3.617,3.617,0,0,1,2.568-1.716c.448.735-.429,2.113-1.773,2.821s-1.3,2.355-1.808,2.352-.727-.923-.727-.923S942.007,441.08,943.33,439.893Z" transform="translate(-940.472 -436.626)" fill="url(#linear-gradient-42)"/>
        <g id="Grupo_34" data-name="Grupo 34" transform="translate(1.459 2.005)">
          <path id="Caminho_94" data-name="Caminho 94" d="M937.6,439.318a.224.224,0,0,0,.273-.356,5.76,5.76,0,0,0-.734-.282A5.751,5.751,0,0,0,937.6,439.318Z" transform="translate(-929.17 -438.68)" fill="#fbda91"/>
          <path id="Caminho_95" data-name="Caminho 95" d="M938.984,441.438a.224.224,0,1,0,.273-.355,5.7,5.7,0,0,0-.733-.282A5.765,5.765,0,0,0,938.984,441.438Z" transform="translate(-931.861 -438.795)" fill="#fbda91"/>
          <path id="Caminho_96" data-name="Caminho 96" d="M938.144,444.465a.224.224,0,1,0,.273-.355,5.7,5.7,0,0,0-.733-.282A5.767,5.767,0,0,0,938.144,444.465Z" transform="translate(-930.227 -438.959)" fill="#fbda91"/>
          <path id="Caminho_97" data-name="Caminho 97" d="M943.585,448.019a.227.227,0,1,0,.317-.32,7.407,7.407,0,0,0-.77-.446A7.3,7.3,0,0,0,943.585,448.019Z" transform="translate(-940.858 -439.144)" fill="#f9e2b2"/>
          <path id="Caminho_98" data-name="Caminho 98" d="M940.635,446.408a.224.224,0,1,0,.273-.356,5.7,5.7,0,0,0-.734-.282A5.882,5.882,0,0,0,940.635,446.408Z" transform="translate(-935.073 -439.064)" fill="#f9e2b2"/>
          <path id="Caminho_99" data-name="Caminho 99" d="M943.3,445.357a.224.224,0,1,0,.273-.356,5.709,5.709,0,0,0-.734-.282A5.873,5.873,0,0,0,943.3,445.357Z" transform="translate(-940.265 -439.007)" fill="#fbda91"/>
          <path id="Caminho_100" data-name="Caminho 100" d="M946.378,445.933c-.027-.1-.1-.3-.162-.455C946.037,445.749,945.989,445.941,946.378,445.933Z" transform="translate(-946.043 -439.048)" fill="#fbda91"/>
          <path id="Caminho_101" data-name="Caminho 101" d="M946.274,446.226c.094-.012.157-.127.14-.257,0-.011-.006-.028-.01-.05-.389.008-.341-.183-.162-.455-.05-.133-.1-.243-.1-.259a7.559,7.559,0,0,0-.069.81C946.087,446.143,946.178,446.239,946.274,446.226Z" transform="translate(-946.068 -439.033)" fill="#f9e2b2"/>
          <path id="Caminho_102" data-name="Caminho 102" d="M935.723,444.8a.224.224,0,1,0,.273-.356,5.756,5.756,0,0,0-.734-.282A5.867,5.867,0,0,0,935.723,444.8Z" transform="translate(-925.515 -438.977)" fill="#fbda91"/>
        </g>
        <path id="Caminho_103" data-name="Caminho 103" d="M941.6,441.717c0-.008-.172-.339.543-1.252s1.5-1.262,1.52-1.69c.01-.239-.457-.313-.87-.331a2.789,2.789,0,0,1,1.649-.681c.448.735-.429,2.113-1.773,2.821A2.549,2.549,0,0,0,941.6,441.717Z" transform="translate(-938.509 -436.626)" fill="#6bbc61"/>
      </g>
      <g id="Grupo_37" data-name="Grupo 37" transform="translate(11.615 80.175)">
        <path id="Caminho_104" data-name="Caminho 104" d="M942.249,493.94c2.559,2.547,4.372,1.574,5.475-.34s1.285-4.319.5-5.64a1.946,1.946,0,0,0-2.254-.831c-.026.576-1.027,1.015-2.039.907s-1.6.825-1.883.633-.06-.784-.06-.784a5.035,5.035,0,0,0-1.975,1.013C939.38,489.562,939.69,491.394,942.249,493.94Z" transform="translate(-939.733 -485.953)" fill="url(#linear-gradient-43)"/>
        <path id="Caminho_105" data-name="Caminho 105" d="M941.328,493c.418-.511.633-.911-.2-.981s-1.33-.34-1.378-.68.289.018.708-.689c.306-.518.917.609,1.272-1.454.274-1.594-2-2.072-2-2.072h0a1.946,1.946,0,0,1,2.254.832c.783,1.321.6,3.726-.5,5.64-.041.071-.082.14-.125.208C941.272,493.5,941.118,493.264,941.328,493Z" transform="translate(-933.493 -485.953)" fill="#c7283a"/>
        <path id="Caminho_106" data-name="Caminho 106" d="M944.73,493.988c1.694,1.685,3.06,1.829,4.111,1.179a2.027,2.027,0,0,1-1.557-.683c-1.225-1.307.357-2.578-1.322-2.9s-1.725-.437-1.512-1.135-.506-.109-1.159-.49a.276.276,0,0,1-.032-.021c-.219-.14-.121-.229.08-.313.316-.131.886-.247.871-.526-.025-.463.692.043,1.188-.788-.416.226-.7.517-.866.4-.283-.192-.06-.784-.06-.784a5.035,5.035,0,0,0-1.975,1.013C941.861,489.61,942.172,491.442,944.73,493.988Z" transform="translate(-942.214 -486.002)" opacity="0.3" fill="url(#linear-gradient-44)"/>
        <path id="Caminho_107" data-name="Caminho 107" d="M944.183,487.1a1.3,1.3,0,0,0-.385-.69c-.351-.362-.328-.457-.151-.516s.8.281.973,1.165a2.421,2.421,0,0,1,2.069,0c-.025.576-1.027,1.015-2.039.907s-1.6.825-1.883.633-.06-.784-.06-.784S943.006,487.27,944.183,487.1Z" transform="translate(-940.449 -485.891)" fill="url(#linear-gradient-45)"/>
        <g id="Grupo_36" data-name="Grupo 36" transform="translate(0.802 2.963)">
          <path id="Caminho_108" data-name="Caminho 108" d="M940.6,489.55a.15.15,0,1,0,.284-.1,3.755,3.755,0,0,0-.3-.43A3.857,3.857,0,0,0,940.6,489.55Z" transform="translate(-933.527 -489.024)" fill="#fbda91"/>
          <path id="Caminho_109" data-name="Caminho 109" d="M942.162,490.213a.15.15,0,1,0,.285-.1.274.274,0,1,0-.285.1Z" transform="translate(-936.563 -489.06)" fill="#fbda91"/>
          <path id="Caminho_110" data-name="Caminho 110" d="M942.826,492.209a.15.15,0,1,0,.284-.1.274.274,0,1,0-.284.1Z" transform="translate(-937.853 -489.168)" fill="#fbda91"/>
          <path id="Caminho_111" data-name="Caminho 111" d="M947.183,492.138a.152.152,0,1,0,.3-.06.308.308,0,1,0-.3.06Z" transform="translate(-946.354 -489.16)" fill="#f9e2b2"/>
          <path id="Caminho_112" data-name="Caminho 112" d="M944.934,492.36a.15.15,0,0,0,.285-.1,3.887,3.887,0,0,0-.3-.43A3.833,3.833,0,0,0,944.934,492.36Z" transform="translate(-941.957 -489.176)" fill="#f9e2b2"/>
          <path id="Caminho_113" data-name="Caminho 113" d="M946.026,490.781a.15.15,0,1,0,.284-.1.274.274,0,1,0-.284.1Z" transform="translate(-944.081 -489.091)" fill="#fbda91"/>
          <path id="Caminho_114" data-name="Caminho 114" d="M948.156,490.04c.023-.067.056-.2.08-.313C948.034,489.811,947.936,489.9,948.156,490.04Z" transform="translate(-947.914 -489.062)" fill="#fbda91"/>
          <path id="Caminho_115" data-name="Caminho 115" d="M948.045,490.153c.057.028.134-.012.174-.091,0-.007.008-.018.012-.032-.219-.14-.121-.229.08-.313.022-.093.038-.171.04-.183a4.88,4.88,0,0,0-.341.425A.143.143,0,0,0,948.045,490.153Z" transform="translate(-947.989 -489.052)" fill="#f9e2b2"/>
          <path id="Caminho_116" data-name="Caminho 116" d="M941.6,493.3a.15.15,0,1,0,.285-.1,3.875,3.875,0,0,0-.3-.43A3.825,3.825,0,0,0,941.6,493.3Z" transform="translate(-935.477 -489.227)" fill="#fbda91"/>
        </g>
        <path id="Caminho_117" data-name="Caminho 117" d="M942.623,488.258c0-.006.03-.253.769-.493s1.306-.141,1.475-.373c.1-.13-.137-.345-.36-.51a1.873,1.873,0,0,1,1.172.237c-.025.576-1.027,1.015-2.039.907A1.709,1.709,0,0,0,942.623,488.258Z" transform="translate(-939.439 -485.944)" fill="#6bbc61"/>
      </g>
      <g id="Grupo_39" data-name="Grupo 39" transform="translate(38.519 44.089)">
        <path id="Caminho_118" data-name="Caminho 118" d="M911.822,452.312c-.817,3.516.965,4.545,3.172,4.476s4.348-1.181,5.058-2.543a1.947,1.947,0,0,0-.48-2.355c-.5.283-1.4-.339-1.844-1.255s-1.545-.926-1.53-1.267.636-.464.636-.464a5.04,5.04,0,0,0-1.9-1.144C914.033,447.567,912.639,448.8,911.822,452.312Z" transform="translate(-911.62 -447.739)" fill="url(#linear-gradient-46)"/>
        <path id="Caminho_119" data-name="Caminho 119" d="M912.286,456.578c.655.086,1.109.059.73-.685s-.411-1.31-.148-1.53.137.255.958.239c.6-.012-.034,1.1,1.907.316,1.5-.605.708-2.79.708-2.79h0a1.945,1.945,0,0,1,.479,2.354c-.71,1.362-2.85,2.473-5.058,2.543l-.243,0C911.836,456.791,911.955,456.536,912.286,456.578Z" transform="translate(-908.488 -447.977)" fill="#c7283a"/>
        <path id="Caminho_120" data-name="Caminho 120" d="M915.293,452.312c-.541,2.327.057,3.564,1.162,4.115a2.028,2.028,0,0,1-.239-1.684c.465-1.73,2.379-1.055,1.765-2.649s-.536-1.7.169-1.884-.174-.487-.194-1.242a.294.294,0,0,1,0-.039c0-.26.131-.223.309-.1.277.2.676.623.905.463.381-.265.328.611,1.3.595-.411-.235-.806-.32-.8-.525.014-.342.636-.464.636-.464a5.04,5.04,0,0,0-1.9-1.144C917.5,447.567,916.11,448.8,915.293,452.312Z" transform="translate(-915.091 -447.739)" opacity="0.3" fill="url(#linear-gradient-47)"/>
        <path id="Caminho_121" data-name="Caminho 121" d="M914.389,449.83a1.288,1.288,0,0,0,.384-.69c.123-.489.216-.52.359-.4s.183.828-.478,1.44a2.426,2.426,0,0,1,1.086,1.761c-.5.282-1.4-.34-1.844-1.256s-1.544-.926-1.53-1.267.636-.464.636-.464S913.628,448.917,914.389,449.83Z" transform="translate(-907.788 -447.79)" fill="url(#linear-gradient-48)"/>
        <g id="Grupo_38" data-name="Grupo 38" transform="translate(1.417 0.966)">
          <path id="Caminho_122" data-name="Caminho 122" d="M913.106,454.871a.15.15,0,0,0,.231.192,3.866,3.866,0,0,0,.206-.484A3.922,3.922,0,0,0,913.106,454.871Z" transform="translate(-907.673 -449.075)" fill="#fbda91"/>
          <path id="Caminho_123" data-name="Caminho 123" d="M914.49,453.893a.15.15,0,0,0,.232.192,3.875,3.875,0,0,0,.206-.484A3.926,3.926,0,0,0,914.49,453.893Z" transform="translate(-910.369 -449.022)" fill="#fbda91"/>
          <path id="Caminho_124" data-name="Caminho 124" d="M916.536,454.382a.15.15,0,0,0,.232.191,3.966,3.966,0,0,0,.206-.484A3.819,3.819,0,0,0,916.536,454.382Z" transform="translate(-914.35 -449.049)" fill="#fbda91"/>
          <path id="Caminho_125" data-name="Caminho 125" d="M918.72,450.623a.152.152,0,1,0,.206.219,4.818,4.818,0,0,0,.317-.5A4.8,4.8,0,0,0,918.72,450.623Z" transform="translate(-918.661 -448.846)" fill="#f9e2b2"/>
          <path id="Caminho_126" data-name="Caminho 126" d="M917.776,452.668a.15.15,0,0,0,.232.191,3.824,3.824,0,0,0,.206-.484A3.807,3.807,0,0,0,917.776,452.668Z" transform="translate(-916.761 -448.956)" fill="#f9e2b2"/>
          <path id="Caminho_127" data-name="Caminho 127" d="M917.008,450.908a.15.15,0,0,0,.231.192,3.9,3.9,0,0,0,.207-.484A3.921,3.921,0,0,0,917.008,450.908Z" transform="translate(-915.267 -448.861)" fill="#fbda91"/>
          <path id="Caminho_128" data-name="Caminho 128" d="M917.418,448.987c.07-.015.2-.059.309-.1C917.55,448.764,917.423,448.727,917.418,448.987Z" transform="translate(-915.969 -448.762)" fill="#fbda91"/>
          <path id="Caminho_129" data-name="Caminho 129" d="M917.232,448.892c.006.063.081.108.168.1a.229.229,0,0,0,.034-.007c0-.26.131-.223.309-.1.09-.03.165-.058.176-.062a4.9,4.9,0,0,0-.54-.065C917.292,448.769,917.227,448.827,917.232,448.892Z" transform="translate(-915.986 -448.76)" fill="#f9e2b2"/>
          <path id="Caminho_130" data-name="Caminho 130" d="M916.822,455.994a.15.15,0,0,0,.231.192,3.876,3.876,0,0,0,.206-.484A3.836,3.836,0,0,0,916.822,455.994Z" transform="translate(-914.904 -449.136)" fill="#fbda91"/>
        </g>
        <path id="Caminho_131" data-name="Caminho 131" d="M912.366,450.014c.006,0,.232-.108.825.393s.808,1.037,1.094,1.058c.16.012.22-.3.243-.574a1.868,1.868,0,0,1,.415,1.121c-.5.282-1.4-.34-1.844-1.256A1.7,1.7,0,0,0,912.366,450.014Z" transform="translate(-906.99 -447.862)" fill="#6bbc61"/>
      </g>
      <g id="Grupo_41" data-name="Grupo 41" transform="translate(14.708 55.632)">
        <path id="Caminho_132" data-name="Caminho 132" d="M941.945,464.96c1.8,1.348,2.838.587,3.352-.691a3.829,3.829,0,0,0-.186-3.527,1.214,1.214,0,0,0-1.465-.316c.035.358-.545.717-1.179.74s-.916.651-1.108.556-.106-.479-.106-.479a3.139,3.139,0,0,0-1.13.8C939.789,462.508,940.141,463.612,941.945,464.96Z" transform="translate(-940.01 -459.962)" fill="url(#linear-gradient-49)"/>
        <path id="Caminho_133" data-name="Caminho 133" d="M941.512,463.915c.213-.353.311-.619-.209-.589s-.851-.093-.911-.3.181-.015.376-.488c.144-.347.62.3.658-1.01.029-1.007-1.417-1.1-1.417-1.1h0a1.213,1.213,0,0,1,1.465.316,3.829,3.829,0,0,1,.186,3.527c-.02.047-.039.094-.06.139C941.521,464.225,941.4,464.093,941.512,463.915Z" transform="translate(-936.374 -459.962)" fill="#c7283a"/>
        <path id="Caminho_134" data-name="Caminho 134" d="M943.046,465.014c1.194.892,2.051.861,2.642.367a1.266,1.266,0,0,1-1.021-.286c-.871-.7-.006-1.623-1.071-1.672s-1.1-.118-1.034-.568-.323-.022-.759-.2l-.022-.009c-.147-.067-.095-.13.022-.2.184-.109.526-.231.492-.4-.056-.285.431-.035.664-.591-.237.176-.384.38-.5.323-.191-.094-.106-.479-.106-.479a3.139,3.139,0,0,0-1.13.8C940.89,462.562,941.242,463.666,943.046,465.014Z" transform="translate(-941.111 -460.016)" opacity="0.3" fill="url(#linear-gradient-50)"/>
        <path id="Caminho_135" data-name="Caminho 135" d="M942.973,460.65a.811.811,0,0,0-.3-.392c-.249-.193-.243-.253-.139-.306s.519.1.7.634a1.511,1.511,0,0,1,1.278-.18c.035.358-.545.717-1.179.74s-.916.65-1.107.556-.106-.48-.106-.48S942.26,460.857,942.973,460.65Z" transform="translate(-940.881 -459.943)" fill="url(#linear-gradient-51)"/>
        <g id="Grupo_40" data-name="Grupo 40" transform="translate(0.521 1.426)">
          <path id="Caminho_136" data-name="Caminho 136" d="M940.692,461.773a.094.094,0,0,0,.167-.084,2.449,2.449,0,0,0-.225-.239A2.345,2.345,0,0,0,940.692,461.773Z" transform="translate(-936.362 -461.45)" fill="#fbda91"/>
          <path id="Caminho_137" data-name="Caminho 137" d="M941.6,462.32a.094.094,0,0,0,.167-.084,2.449,2.449,0,0,0-.225-.239A2.5,2.5,0,0,0,941.6,462.32Z" transform="translate(-938.124 -461.48)" fill="#fbda91"/>
          <path id="Caminho_138" data-name="Caminho 138" d="M941.83,463.611a.093.093,0,0,0,.126.042.092.092,0,0,0,.042-.125,2.342,2.342,0,0,0-.224-.239A2.438,2.438,0,0,0,941.83,463.611Z" transform="translate(-938.578 -461.55)" fill="#fbda91"/>
          <path id="Caminho_139" data-name="Caminho 139" d="M944.509,463.952a.095.095,0,1,0,.177-.063,3.063,3.063,0,0,0-.208-.307A3.011,3.011,0,0,0,944.509,463.952Z" transform="translate(-943.821 -461.565)" fill="#f9e2b2"/>
          <path id="Caminho_140" data-name="Caminho 140" d="M943.12,463.889a.094.094,0,1,0,.167-.084,2.452,2.452,0,0,0-.225-.239A2.343,2.343,0,0,0,943.12,463.889Z" transform="translate(-941.088 -461.565)" fill="#f9e2b2"/>
          <path id="Caminho_141" data-name="Caminho 141" d="M943.934,463.01a.093.093,0,0,0,.167-.083,2.456,2.456,0,0,0-.225-.239A2.3,2.3,0,0,0,943.934,463.01Z" transform="translate(-942.67 -461.517)" fill="#fbda91"/>
          <path id="Caminho_142" data-name="Caminho 142" d="M945.308,462.711c.008-.044.016-.13.022-.2C945.213,462.58,945.16,462.643,945.308,462.711Z" transform="translate(-945.159 -461.507)" fill="#fbda91"/>
          <path id="Caminho_143" data-name="Caminho 143" d="M945.253,462.8c.038.012.082-.02.1-.072l0-.021c-.148-.067-.095-.13.022-.2.006-.06.008-.109.008-.116a3.275,3.275,0,0,0-.173.292A.09.09,0,0,0,945.253,462.8Z" transform="translate(-945.209 -461.501)" fill="#f9e2b2"/>
          <path id="Caminho_144" data-name="Caminho 144" d="M940.981,464.177a.094.094,0,1,0,.167-.084,2.333,2.333,0,0,0-.225-.239A2.51,2.51,0,0,0,940.981,464.177Z" transform="translate(-936.925 -461.58)" fill="#fbda91"/>
        </g>
        <path id="Caminho_145" data-name="Caminho 145" d="M942.1,461.4s0-.16.432-.373.795-.2.879-.36c.047-.088-.115-.2-.268-.283a1.169,1.169,0,0,1,.744.044c.035.358-.545.717-1.179.74A1.063,1.063,0,0,0,942.1,461.4Z" transform="translate(-940.256 -459.964)" fill="#6bbc61"/>
      </g>
      <g id="Grupo_43" data-name="Grupo 43" transform="translate(26.073 66.326)">
        <path id="Caminho_146" data-name="Caminho 146" d="M930.215,473.773c.217,1.5,1.07,1.628,1.921,1.264a2.572,2.572,0,0,0,1.587-1.763.816.816,0,0,0-.547-.847c-.153.187-.6.082-.911-.209s-.744-.126-.791-.261.177-.278.177-.278a2.112,2.112,0,0,0-.916-.158C930.356,471.585,930,472.276,930.215,473.773Z" transform="translate(-930.149 -471.263)" fill="url(#linear-gradient-52)"/>
        <path id="Caminho_147" data-name="Caminho 147" d="M930.341,474.851c.269-.066.441-.147.18-.379s-.359-.448-.29-.574.093.078.41-.053c.233-.1.154.435.793-.167.493-.464-.148-1.2-.148-1.2h0a.816.816,0,0,1,.546.847,2.572,2.572,0,0,1-1.587,1.763l-.094.039C930.2,475,930.205,474.884,930.341,474.851Z" transform="translate(-928.257 -471.316)" fill="#c7283a"/>
        <path id="Caminho_148" data-name="Caminho 148" d="M932.183,473.773c.144.991.566,1.383,1.081,1.429a.848.848,0,0,1-.35-.62c-.081-.746.768-.774.286-1.3s-.468-.58-.221-.76-.142-.164-.265-.456l-.006-.015c-.038-.1.017-.107.106-.084.138.035.359.14.424.043.109-.162.221.188.6.035-.2-.029-.364,0-.392-.083-.046-.136.177-.278.177-.278a2.112,2.112,0,0,0-.916-.158C932.324,471.585,931.967,472.276,932.183,473.773Z" transform="translate(-932.118 -471.263)" opacity="0.3" fill="url(#linear-gradient-53)"/>
        <path id="Caminho_149" data-name="Caminho 149" d="M931.591,471.8a.543.543,0,0,0,.044-.328c-.026-.209,0-.236.079-.211s.2.3.033.636a1.017,1.017,0,0,1,.692.521c-.154.187-.6.082-.912-.209s-.744-.126-.791-.261.178-.278.178-.278A.8.8,0,0,1,931.591,471.8Z" transform="translate(-929.413 -471.249)" fill="url(#linear-gradient-54)"/>
        <g id="Grupo_42" data-name="Grupo 42" transform="translate(0.276 0.649)">
          <path id="Caminho_150" data-name="Caminho 150" d="M930.636,473.726a.064.064,0,0,0,.041.079.064.064,0,0,0,.079-.04,1.707,1.707,0,0,0,.007-.22A1.649,1.649,0,0,0,930.636,473.726Z" transform="translate(-927.919 -472.022)" fill="#fbda91"/>
          <path id="Caminho_151" data-name="Caminho 151" d="M931.327,473.555a.063.063,0,0,0,.119.04,1.707,1.707,0,0,0,.007-.22A1.535,1.535,0,0,0,931.327,473.555Z" transform="translate(-929.261 -472.013)" fill="#fbda91"/>
          <path id="Caminho_152" data-name="Caminho 152" d="M932.05,474.058a.064.064,0,0,0,.04.079.063.063,0,0,0,.079-.041,1.567,1.567,0,0,0,.008-.22A1.686,1.686,0,0,0,932.05,474.058Z" transform="translate(-930.67 -472.04)" fill="#fbda91"/>
          <path id="Caminho_153" data-name="Caminho 153" d="M933.471,472.932a.064.064,0,1,0,.114.054.129.129,0,1,0-.114-.054Z" transform="translate(-933.463 -471.979)" fill="#f9e2b2"/>
          <path id="Caminho_154" data-name="Caminho 154" d="M932.8,473.577a.063.063,0,0,0,.041.079.062.062,0,0,0,.079-.04,1.707,1.707,0,0,0,.007-.22A1.759,1.759,0,0,0,932.8,473.577Z" transform="translate(-932.12 -472.014)" fill="#f9e2b2"/>
          <path id="Caminho_155" data-name="Caminho 155" d="M932.764,472.773a.063.063,0,0,0,.119.04,1.554,1.554,0,0,0,.007-.22A1.761,1.761,0,0,0,932.764,472.773Z" transform="translate(-932.059 -471.971)" fill="#fbda91"/>
          <path id="Caminho_156" data-name="Caminho 156" d="M933.209,472.073c.025-.016.069-.053.106-.084C933.226,471.966,933.171,471.97,933.209,472.073Z" transform="translate(-932.895 -471.937)" fill="#fbda91"/>
          <path id="Caminho_157" data-name="Caminho 157" d="M933.139,472.065a.06.06,0,0,0,.081.013l.012-.008c-.038-.1.017-.107.106-.084l.059-.051a2.013,2.013,0,0,0-.22.057C933.144,472.008,933.127,472.041,933.139,472.065Z" transform="translate(-932.918 -471.935)" fill="#f9e2b2"/>
          <path id="Caminho_158" data-name="Caminho 158" d="M931.917,474.73a.063.063,0,1,0,.119.04,1.546,1.546,0,0,0,.007-.22A1.619,1.619,0,0,0,931.917,474.73Z" transform="translate(-930.409 -472.077)" fill="#fbda91"/>
        </g>
        <path id="Caminho_159" data-name="Caminho 159" d="M930.732,472.069s.074-.078.382.027.473.282.588.247c.064-.02.041-.15.007-.261a.782.782,0,0,1,.334.374c-.154.187-.6.082-.912-.209A.718.718,0,0,0,930.732,472.069Z" transform="translate(-929.015 -471.292)" fill="#6bbc61"/>
      </g>
      <path id="Caminho_160" data-name="Caminho 160" d="M957.736,512.15H946.628L938.588,410h12.65Z" transform="translate(-936.065 -401.606)" opacity="0.3" fill="url(#linear-gradient-55)"/>
      <path id="Caminho_161" data-name="Caminho 161" d="M939.372,512.15h-3.377L929.508,410h3.557Z" transform="translate(-909.112 -401.606)" opacity="0.3" fill="url(#linear-gradient-56)"/>
    </g>
  </g>
  <g id="cook_stuff" data-name="cook stuff" transform="translate(33.341 197.837)">
    <g id="Grupo_52" data-name="Grupo 52" transform="translate(0)">
      <g id="Grupo_45" data-name="Grupo 45" transform="translate(0 2.207)">
        <ellipse id="Elipse_4" data-name="Elipse 4" cx="6.621" cy="6.621" rx="6.621" ry="6.621" transform="translate(99.785)" fill="#6bbc61"/>
        <rect id="Retângulo_11" data-name="Retângulo 11" width="100.395" height="4.891" transform="translate(0 3.858)" fill="#6bbc61"/>
      </g>
      <g id="Grupo_47" data-name="Grupo 47" transform="translate(75.751)">
        <rect id="Retângulo_12" data-name="Retângulo 12" width="12.453" height="56.592" rx="6.227" transform="translate(5.827)" fill="#53a547"/>
        <g id="Grupo_46" data-name="Grupo 46" transform="translate(10.635 56.592)">
          <rect id="Retângulo_13" data-name="Retângulo 13" width="2.838" height="30.03" fill="#6bbc61"/>
        </g>
        <path id="Caminho_162" data-name="Caminho 162" d="M1238.743,300.75s8.907,1.34,9.853,10.8.644,24.12.644,24.12l-6.792-15.607-5.124,15.607-5.439-15.765-4.571,15.765s-2.705-13.044-1.892-22.7,10.483-12.217,10.483-12.217Z" transform="translate(-1225.271 -214.127)" fill="#6bbc61"/>
      </g>
      <g id="Grupo_49" data-name="Grupo 49" transform="translate(40.907)">
        <rect id="Retângulo_14" data-name="Retângulo 14" width="12.453" height="56.592" rx="6.227" transform="translate(9.29)" fill="#53a547"/>
        <g id="Grupo_48" data-name="Grupo 48" transform="translate(14.098 56.592)">
          <rect id="Retângulo_15" data-name="Retângulo 15" width="2.838" height="30.03" fill="#6bbc61"/>
        </g>
        <path id="Caminho_163" data-name="Caminho 163" d="M1261.113,300.75H1279.3a6.423,6.423,0,0,1,6.423,6.424v30.9a6.423,6.423,0,0,1-6.423,6.424h-18.187a6.424,6.424,0,0,1-6.424-6.424v-30.9A6.424,6.424,0,0,1,1261.113,300.75Zm15.32,37.084h2.533V307.411h-2.533Zm-7.493,0h2.533V307.411h-2.533Zm-7.493,0h2.532V307.411h-2.532Z" transform="translate(-1254.689 -214.127)" fill="#6bbc61"/>
      </g>
      <g id="Grupo_51" data-name="Grupo 51" transform="translate(13.834)">
        <rect id="Retângulo_16" data-name="Retângulo 16" width="12.453" height="56.592" rx="6.227" transform="translate(4.983)" fill="#53a547"/>
        <g id="Grupo_50" data-name="Grupo 50" transform="translate(9.791 56.592)">
          <rect id="Retângulo_17" data-name="Retângulo 17" width="2.838" height="30.03" fill="#6bbc61"/>
        </g>
        <path id="Caminho_164" data-name="Caminho 164" d="M1304.621,300.75s10.5,1.182,10.189,16-6.348,21.045-11.607,21.084-12.2-9.892-11.093-22.66,9.674-14.424,9.674-14.424Z" transform="translate(-1291.993 -214.127)" fill="#6bbc61"/>
      </g>
    </g>
  </g>
  <g id="furniture" transform="translate(0.359)">
    <g id="Grupo_54" data-name="Grupo 54">
      <path id="Caminho_165" data-name="Caminho 165" d="M820.62,0V176.02h459.269c-4.531-32.5-12.012-65.925-2.431-94.678C1292.591,35.942,1336.1,0,1336.1,0Z" transform="translate(-820.62)" fill="#6bbc61"/>
      <g id="Grupo_53" data-name="Grupo 53" transform="translate(162.166)">
        <rect id="Retângulo_18" data-name="Retângulo 18" width="4.729" height="176.02" fill="#53a547"/>
      </g>
      <path id="Caminho_166" data-name="Caminho 166" d="M1078.638,81.342c-6.329,18.992-5.212,40.023-2.419,61.479H820.62V0h316.66S1093.771,35.942,1078.638,81.342Z" transform="translate(-621.8)" fill="#53a547"/>
      <ellipse id="Elipse_5" data-name="Elipse 5" cx="9.687" cy="9.687" rx="9.687" ry="9.687" transform="translate(347.463 103.813)" fill="#6bbc61"/>
      <rect id="Retângulo_19" data-name="Retângulo 19" width="130.241" height="142.821" fill="#53a547"/>
      <ellipse id="Elipse_6" data-name="Elipse 6" cx="9.687" cy="9.687" rx="9.687" ry="9.687" transform="translate(55.434 103.813)" fill="#6bbc61"/>
    </g>
  </g>
  <g id="pan">
    <g id="Grupo_61" data-name="Grupo 61">
      <g id="Grupo_57" data-name="Grupo 57" transform="translate(75.474 405.492)">
        <g id="Grupo_55" data-name="Grupo 55" transform="translate(115.628)">
          <path id="Caminho_167" data-name="Caminho 167" d="M1149.611,433.442h11.074a2.365,2.365,0,0,0,0-4.729h-11.074a2.365,2.365,0,1,0,0,4.729Z" transform="translate(-1147.246 -428.713)" fill="#1d164d"/>
        </g>
        <g id="Grupo_56" data-name="Grupo 56">
          <path id="Caminho_168" data-name="Caminho 168" d="M1271.861,433.442h11.074a2.365,2.365,0,1,0,0-4.729h-11.074a2.365,2.365,0,0,0,0,4.729Z" transform="translate(-1269.496 -428.713)" fill="#1d164d"/>
        </g>
      </g>
      <rect id="Retângulo_20" data-name="Retângulo 20" width="108.109" height="117.993" rx="10.713" transform="translate(87.135 397.723)" fill="url(#linear-gradient-57)"/>
      <g id="Grupo_60" data-name="Grupo 60" transform="translate(152.989 408.837)">
        <g id="Grupo_58" data-name="Grupo 58">
          <path id="Caminho_169" data-name="Caminho 169" d="M1194.031,436.979h7.172a2.365,2.365,0,0,0,0-4.729h-7.172a2.365,2.365,0,0,0,0,4.729Z" transform="translate(-1191.667 -432.25)" fill="#fff"/>
        </g>
        <g id="Grupo_59" data-name="Grupo 59" transform="translate(19.724)">
          <path id="Caminho_170" data-name="Caminho 170" d="M1180.313,482.5a2.364,2.364,0,0,0,2.365-2.365v-37.7A10.182,10.182,0,0,0,1172.5,432.25a2.365,2.365,0,1,0,0,4.729,5.454,5.454,0,0,1,5.453,5.454v37.7A2.364,2.364,0,0,0,1180.313,482.5Z" transform="translate(-1170.131 -432.25)" fill="#fff"/>
        </g>
      </g>
      <path id="Caminho_171" data-name="Caminho 171" d="M1170.287,528.36V430.633A10.132,10.132,0,0,1,1180.42,420.5a37.8,37.8,0,0,0,3.937,30.636c9.458,15.975,7.567,16.656,4.729,39.9s22.7,32.557,49.883,32.084,29.3,15.37,29.3,15.37H1180.42A10.132,10.132,0,0,1,1170.287,528.36Z" transform="translate(-1083.152 -22.777)" fill="#c9e2f4"/>
      <path id="Caminho_172" data-name="Caminho 172" d="M1350.1,397.723s-20.988-12.542-14.627-44.814,36.154-46.481,11.8-71.534-58.405-54.418-31.922-81.826,34.107-74.7-13.213-90.778S1239.684,0,1239.684,0h-45.045l-.355,83.233s30.827,60.533,77.838,64.317,19.2,50.129,0,69.046,39.445,78.5,52.687,92.692-28.677,50.129,10.664,88.436Z" transform="translate(-1194.284)" opacity="0.3" fill="url(#linear-gradient-58)"/>
    </g>
  </g>
</svg>
