<svg xmlns="http://www.w3.org/2000/svg" xmlns:xlink="http://www.w3.org/1999/xlink" width="872" height="743.301" viewBox="0 0 872 743.301">
  <defs>
    <linearGradient id="linear-gradient" x1="1.093" y1="-0.519" x2="0.264" y2="0.906" gradientUnits="objectBoundingBox">
      <stop offset="0" stop-color="#6bbc61"/>
      <stop offset="1" stop-color="#a7df63"/>
    </linearGradient>
    <linearGradient id="linear-gradient-2" x1="0.5" y1="-1.89" x2="0.5" y2="1.431" gradientUnits="objectBoundingBox">
      <stop offset="0" stop-color="#369e5f"/>
      <stop offset="1" stop-color="#369e5f" stop-opacity="0"/>
    </linearGradient>
    <linearGradient id="linear-gradient-3" x1="0.351" y1="0.347" x2="1.344" y2="0.87" gradientUnits="objectBoundingBox">
      <stop offset="0" stop-color="#dbe42c"/>
      <stop offset="1" stop-color="#6ad419"/>
    </linearGradient>
    <linearGradient id="linear-gradient-4" x1="0.366" y1="0.392" x2="1.797" y2="0.767" gradientUnits="objectBoundingBox">
      <stop offset="0" stop-color="#fff"/>
      <stop offset="1" stop-color="#fff" stop-opacity="0"/>
    </linearGradient>
    <linearGradient id="linear-gradient-5" x1="0.213" y1="0.275" x2="0.91" y2="0.745" xlink:href="#linear-gradient-3"/>
    <linearGradient id="linear-gradient-6" x1="-24.477" y1="0.878" x2="-24.955" y2="0.374" gradientUnits="objectBoundingBox">
      <stop offset="0" stop-color="#8f5138"/>
      <stop offset="1" stop-color="#ba6d4d"/>
    </linearGradient>
    <linearGradient id="linear-gradient-7" x1="0.464" y1="0.234" x2="0.91" y2="1.789" xlink:href="#linear-gradient"/>
    <linearGradient id="linear-gradient-8" x1="0.356" y1="1.355" x2="0.553" y2="0.1" gradientUnits="objectBoundingBox">
      <stop offset="0" stop-color="#c7283a"/>
      <stop offset="1" stop-color="#ef4b4b"/>
    </linearGradient>
    <linearGradient id="linear-gradient-9" x1="0.08" y1="0.37" x2="1.839" y2="1.206" xlink:href="#linear-gradient-4"/>
    <linearGradient id="linear-gradient-10" x1="0.851" y1="0.878" x2="0.373" y2="0.374" xlink:href="#linear-gradient-6"/>
    <linearGradient id="linear-gradient-11" x1="0.5" y1="0.059" x2="0.5" y2="0.954" gradientUnits="objectBoundingBox">
      <stop offset="0" stop-color="#ffb965"/>
      <stop offset="1" stop-color="#ff8a5f"/>
    </linearGradient>
    <linearGradient id="linear-gradient-12" x1="0.575" y1="0.257" x2="0.371" y2="0.916" gradientUnits="objectBoundingBox">
      <stop offset="0" stop-color="#fff"/>
      <stop offset="1" stop-color="#eaf5ff"/>
    </linearGradient>
    <linearGradient id="linear-gradient-13" x1="0.5" y1="2.274" x2="0.5" y2="-0.4" gradientUnits="objectBoundingBox">
      <stop offset="0" stop-color="#1d164d"/>
      <stop offset="1" stop-color="#4a4975"/>
    </linearGradient>
    <linearGradient id="linear-gradient-14" x1="0.5" y1="-0.318" x2="0.5" y2="1.939" xlink:href="#linear-gradient-11"/>
    <linearGradient id="linear-gradient-15" x1="0.201" y1="0.016" x2="0.778" y2="0.95" gradientUnits="objectBoundingBox">
      <stop offset="0" stop-color="#acd4f3"/>
      <stop offset="1" stop-color="#4099f1"/>
    </linearGradient>
    <linearGradient id="linear-gradient-16" x1="2.259" y1="0.5" x2="0.112" y2="0.5" xlink:href="#linear-gradient-15"/>
    <linearGradient id="linear-gradient-17" x1="0.595" y1="-0.574" x2="0.418" y2="1.433" xlink:href="#linear-gradient-15"/>
    <linearGradient id="linear-gradient-18" x1="-0.704" y1="1.346" x2="0.321" y2="-0.1" xlink:href="#linear-gradient-8"/>
    <linearGradient id="linear-gradient-19" x1="-0.491" y1="0.402" x2="2.047" y2="0.227" xlink:href="#linear-gradient-4"/>
    <linearGradient id="linear-gradient-20" x1="0.306" y1="-0.358" x2="0.397" y2="-0.915" xlink:href="#linear-gradient"/>
    <linearGradient id="linear-gradient-21" x1="-0.815" y1="0.5" x2="0.878" y2="0.5" gradientUnits="objectBoundingBox">
      <stop offset="0" stop-color="#c9e2f4"/>
      <stop offset="1" stop-color="#eaf5ff"/>
    </linearGradient>
    <linearGradient id="linear-gradient-22" x1="0.851" y1="0.022" x2="0.125" y2="1.119" xlink:href="#linear-gradient-15"/>
    <linearGradient id="linear-gradient-23" x1="0.41" y1="0.946" x2="0.54" y2="0.018" xlink:href="#linear-gradient-13"/>
    <linearGradient id="linear-gradient-24" x1="0.811" y1="0.881" x2="0.6" y2="0.435" gradientUnits="objectBoundingBox">
      <stop offset="0" stop-color="#ffc0ac"/>
      <stop offset="1" stop-color="#ffd6c7"/>
    </linearGradient>
    <linearGradient id="linear-gradient-25" x1="-0.05" y1="0.995" x2="0.948" y2="0.292" xlink:href="#linear-gradient-13"/>
    <linearGradient id="linear-gradient-26" x1="-0.308" y1="1.626" x2="0.698" y2="0.06" xlink:href="#linear-gradient-8"/>
    <linearGradient id="linear-gradient-27" x1="-0.081" y1="1.498" x2="0.549" y2="0.165" xlink:href="#linear-gradient-24"/>
    <linearGradient id="linear-gradient-28" x1="-0.125" y1="1.494" x2="0.644" y2="0.102" xlink:href="#linear-gradient-24"/>
    <linearGradient id="linear-gradient-29" x1="-0.058" y1="1.35" x2="0.722" y2="0.161" xlink:href="#linear-gradient-24"/>
    <linearGradient id="linear-gradient-30" x1="0.171" y1="0.841" x2="0.717" y2="0.364" xlink:href="#linear-gradient-21"/>
    <linearGradient id="linear-gradient-31" x1="0" y1="0.5" x2="1" y2="0.5" xlink:href="#linear-gradient-13"/>
    <linearGradient id="linear-gradient-32" x1="-0.51" y1="0.534" x2="3.227" y2="0.374" xlink:href="#linear-gradient-4"/>
    <linearGradient id="linear-gradient-34" x1="0.461" y1="1.348" x2="0.522" y2="0.521" xlink:href="#linear-gradient"/>
    <linearGradient id="linear-gradient-35" x1="0.89" y1="1.114" x2="0.223" y2="0.324" xlink:href="#linear-gradient-13"/>
    <linearGradient id="linear-gradient-36" x1="0.548" y1="0.873" x2="0.128" y2="0.179" xlink:href="#linear-gradient-13"/>
    <linearGradient id="linear-gradient-37" x1="1.091" y1="1.191" x2="0.39" y2="0.262" xlink:href="#linear-gradient-21"/>
    <linearGradient id="linear-gradient-38" x1="-0.938" y1="0.027" x2="3.062" y2="1.29" gradientUnits="objectBoundingBox">
      <stop offset="0" stop-color="#ff63de"/>
      <stop offset="1" stop-color="#b122e5"/>
    </linearGradient>
    <linearGradient id="linear-gradient-39" x1="0.736" y1="0.872" x2="0.515" y2="0.394" xlink:href="#linear-gradient-24"/>
    <linearGradient id="linear-gradient-40" x1="0.413" y1="1.728" x2="0.542" y2="0.027" xlink:href="#linear-gradient-21"/>
    <linearGradient id="linear-gradient-41" x1="0.678" y1="0.945" x2="0.432" y2="0.205" xlink:href="#linear-gradient-24"/>
    <linearGradient id="linear-gradient-42" x1="0" y1="0.5" x2="1" y2="0.5" xlink:href="#linear-gradient-24"/>
    <linearGradient id="linear-gradient-44" x1="0.801" y1="0.5" x2="1.801" y2="0.5" xlink:href="#linear-gradient-13"/>
    <linearGradient id="linear-gradient-45" x1="1.91" y1="0.5" x2="2.91" y2="0.5" xlink:href="#linear-gradient-13"/>
    <linearGradient id="linear-gradient-47" x1="10.296" y1="1.257" x2="8.755" y2="-0.022" gradientUnits="objectBoundingBox">
      <stop offset="0" stop-color="#b7c0e2"/>
      <stop offset="1" stop-color="#b7c0e2" stop-opacity="0"/>
    </linearGradient>
    <linearGradient id="linear-gradient-48" x1="0.612" y1="1.212" x2="0.448" y2="0.172" xlink:href="#linear-gradient-13"/>
    <linearGradient id="linear-gradient-49" x1="1.502" y1="1.191" x2="0.498" y2="0.373" xlink:href="#linear-gradient-24"/>
    <linearGradient id="linear-gradient-50" x1="1.023" y1="0.098" x2="1.921" y2="1.116" xlink:href="#linear-gradient-13"/>
    <linearGradient id="linear-gradient-51" x1="-0.168" y1="0.17" x2="1.513" y2="0.428" xlink:href="#linear-gradient-13"/>
    <linearGradient id="linear-gradient-52" x1="0.386" y1="0.266" x2="0.752" y2="1.169" xlink:href="#linear-gradient-11"/>
  </defs>
  <g id="Illustration" transform="translate(-494)">
    <g id="bg">
      <path id="Caminho_1" data-name="Caminho 1" d="M1366,0H494L715.312,618.425C742.226,693.636,809.723,743.3,885.021,743.3H1366Z" fill="url(#linear-gradient)"/>
      <g id="Grupo_4" data-name="Grupo 4" transform="translate(0 48)">
        <path id="Caminho_2" data-name="Caminho 2" d="M1366,695V633.417L750.757,631.99c33.85,38.4,81.069,63.01,134.264,63.01Z" fill="url(#linear-gradient-2)"/>
        <g id="Grupo_3" data-name="Grupo 3">
          <g id="Grupo_1" data-name="Grupo 1">
            <ellipse id="Elipse_1" data-name="Elipse 1" cx="16.618" cy="3.782" rx="16.618" ry="3.782" transform="translate(1014.841 648.151)" fill="#fff" opacity="0.2"/>
            <ellipse id="Elipse_2" data-name="Elipse 2" cx="11.443" cy="2.605" rx="11.443" ry="2.605" transform="translate(937.807 671.653)" fill="#fff" opacity="0.2"/>
            <ellipse id="Elipse_3" data-name="Elipse 3" cx="4.179" cy="0.951" rx="4.179" ry="0.951" transform="translate(851.615 658.652)" fill="#fff" opacity="0.2"/>
            <ellipse id="Elipse_4" data-name="Elipse 4" cx="4.179" cy="0.951" rx="4.179" ry="0.951" transform="translate(991.391 675.911)" fill="#fff" opacity="0.2"/>
            <ellipse id="Elipse_5" data-name="Elipse 5" cx="14.165" cy="3.224" rx="14.165" ry="3.224" transform="translate(1046.267 673.638)" fill="#fff" opacity="0.2"/>
            <ellipse id="Elipse_6" data-name="Elipse 6" cx="10.647" cy="2.424" rx="10.647" ry="2.424" transform="translate(871.545 681.755)" fill="#fff" opacity="0.2"/>
            <ellipse id="Elipse_7" data-name="Elipse 7" cx="12.721" cy="2.896" rx="12.721" ry="2.896" transform="translate(918.523 649.038)" fill="#fff" opacity="0.2"/>
          </g>
          <g id="Grupo_2" data-name="Grupo 2">
            <ellipse id="Elipse_8" data-name="Elipse 8" cx="16.618" cy="3.782" rx="16.618" ry="3.782" transform="translate(1157.222 644.983)" fill="#fff" opacity="0.2"/>
            <ellipse id="Elipse_9" data-name="Elipse 9" cx="11.443" cy="2.605" rx="11.443" ry="2.605" transform="translate(1244.604 668.485)" fill="#fff" opacity="0.2"/>
            <ellipse id="Elipse_10" data-name="Elipse 10" cx="4.179" cy="0.951" rx="4.179" ry="0.951" transform="translate(1345.324 655.484)" fill="#fff" opacity="0.2"/>
            <ellipse id="Elipse_11" data-name="Elipse 11" cx="4.179" cy="0.951" rx="4.179" ry="0.951" transform="translate(1205.548 672.743)" fill="#fff" opacity="0.2"/>
            <ellipse id="Elipse_12" data-name="Elipse 12" cx="14.165" cy="3.224" rx="14.165" ry="3.224" transform="translate(1130.701 670.47)" fill="#fff" opacity="0.2"/>
            <ellipse id="Elipse_13" data-name="Elipse 13" cx="10.647" cy="2.424" rx="10.647" ry="2.424" transform="translate(1312.458 678.587)" fill="#fff" opacity="0.2"/>
            <ellipse id="Elipse_14" data-name="Elipse 14" cx="12.721" cy="2.896" rx="12.721" ry="2.896" transform="translate(1261.332 645.87)" fill="#fff" opacity="0.2"/>
          </g>
        </g>
      </g>
      <path id="Caminho_3" data-name="Caminho 3" d="M829.333,43C782,58.333,716,22,640,40c-49.688,11.768-82.275,54.748-98.885,83.1L606.4,293.687c0-.006-20.527-218.076,151.792-218.3S850.239,0,954.905,0H893.5S876.667,27.667,829.333,43Z" transform="translate(41 145)" fill="#fff" opacity="0.2"/>
      <path id="Caminho_4" data-name="Caminho 4" d="M1007.588,0H1024s39.177,46.5,122.667,33,25.152,65.68,75.523,85.391,57.871-57.716,95.369-43,48.441,0,48.441,0V195.643s-26.57,5.764-39.785-32.939-51.835,14.7-104.025,0S1205.148,67,1136.574,67,1079.333,51.667,1048,31,1007.588,0,1007.588,0Z" transform="translate(0 145)" fill="#fff" opacity="0.2"/>
    </g>
    <g id="diagram" transform="translate(670.198 127.263)">
      <g id="Grupo_5" data-name="Grupo 5" transform="translate(0 0)">
        <path id="Caminho_5" data-name="Caminho 5" d="M956.859,75.39V182.277A170.092,170.092,0,1,1,778.294,403.422a.232.232,0,0,1-.02-.079q-.951-2.942-1.783-5.924c-.535-1.942-1.05-3.913-1.526-5.885-.109-.446-.218-.892-.317-1.337-.248-1.05-.476-2.1-.7-3.15-.168-.812-.337-1.625-.5-2.447-.2-.971-.376-1.942-.555-2.923-.139-.793-.277-1.585-.406-2.378-.1-.594-.188-1.179-.277-1.773-.109-.723-.218-1.446-.317-2.17-.059-.4-.109-.793-.158-1.189-.1-.723-.2-1.437-.277-2.16-.129-1.02-.238-2.041-.337-3.071-.049-.416-.089-.832-.129-1.258-.079-.892-.158-1.793-.228-2.685-.089-1.09-.168-2.189-.228-3.289v-.079c-.05-.852-.1-1.7-.129-2.556-.02-.307-.03-.614-.04-.921-.03-.723-.059-1.456-.069-2.189-.02-.505-.03-1-.03-1.506q-.03-1.441-.03-2.883a169.5,169.5,0,0,1,47.792-118.211L742.679,158A275.742,275.742,0,0,0,663.67,351.569q0,3.329.079,6.628c.02,1.1.06,2.2.1,3.3.03.872.059,1.744.1,2.615.02.357.03.713.049,1.07.03.654.069,1.308.109,1.962.05.911.1,1.823.169,2.724.04.713.089,1.436.139,2.16.04.545.079,1.09.129,1.625.069.9.149,1.813.228,2.715.079.941.168,1.882.267,2.814.079.852.168,1.7.258,2.556s.188,1.714.3,2.566c.119,1.08.258,2.15.4,3.22s.287,2.14.436,3.2q.907,6.4,2.1,12.7c24.262,128.009,136.737,224.811,271.81,224.811,152.8,0,276.664-123.868,276.664-276.664C1217,204.31,1101.968,83.93,956.859,75.39Z" transform="translate(-663.67 -74.899)" fill="#eaf5ff"/>
        <path id="Caminho_6" data-name="Caminho 6" d="M776.491,398.194c-.535-1.942-1.05-3.913-1.526-5.885-.109-.446-.218-.892-.317-1.337-.248-1.05-.476-2.1-.7-3.15-.168-.812-.337-1.625-.5-2.447-.2-.971-.376-1.942-.555-2.923-.139-.793-.277-1.585-.406-2.378-.1-.594-.188-1.179-.277-1.773-.109-.723-.218-1.446-.317-2.17-.059-.4-.119-.793-.158-1.189-.109-.713-.2-1.437-.277-2.16-.129-1.02-.238-2.041-.337-3.071-.049-.416-.089-.832-.129-1.258-.089-.892-.158-1.783-.228-2.685-.089-1.09-.168-2.189-.228-3.289V362.4c-.059-.852-.1-1.7-.129-2.556-.02-.307-.03-.614-.04-.921-.03-.723-.059-1.456-.069-2.189-.02-.5-.03-1-.03-1.506q-.03-1.441-.03-2.883a169.5,169.5,0,0,1,47.792-118.211L742.679,158.78A275.741,275.741,0,0,0,663.67,352.344q0,3.329.079,6.628c.02,1.1.06,2.2.1,3.3.03.872.059,1.744.1,2.616.02.357.03.713.049,1.07.03.654.069,1.308.109,1.962.05.911.1,1.823.169,2.724.04.713.089,1.437.139,2.16.04.545.079,1.09.129,1.625.069.9.149,1.813.228,2.715.079.941.168,1.872.267,2.814.079.852.168,1.7.258,2.556s.188,1.714.3,2.566c.119,1.08.258,2.15.4,3.22s.287,2.14.436,3.2q.907,6.4,2.1,12.7h109.77a.233.233,0,0,1-.02-.079C777.641,402.156,777.056,400.185,776.491,398.194Z" transform="translate(-663.67 -75.674)" fill="#acd4f3"/>
        <path id="Caminho_7" data-name="Caminho 7" d="M831.245,221.784a169.406,169.406,0,0,1,109.942-40.318V74.894a275.64,275.64,0,0,0-185.459,71.371Z" transform="translate(-664.526 -74.894)" fill="#fed300"/>
        <text id="_25g_carbs" data-name="25g
carbs" transform="translate(38.28 193.104)" fill="#4099f1" font-size="31" font-family="Montserrat-ExtraBold, Montserrat" font-weight="800"><tspan x="0" y="0">25g</tspan><tspan font-size="21"><tspan x="0" y="38">carbs</tspan></tspan></text>
        <text id="_0.3g_fat" data-name="0.3g
fat" transform="translate(157.507 67.166)" fill="#d19500" font-size="30" font-family="Montserrat-ExtraBold, Montserrat" font-weight="800"><tspan x="0" y="0">0.3g</tspan><tspan font-size="24"><tspan x="0" y="36">fat</tspan></tspan></text>
        <text id="_95_calories" data-name="95
calories" transform="translate(373.02 96.712)" fill="#8f9bc1" font-size="46" font-family="Montserrat-ExtraBold, Montserrat" font-weight="800"><tspan x="0" y="0">95</tspan><tspan font-size="15"><tspan x="0" y="27">calories</tspan></tspan></text>
      </g>
    </g>
    <g id="apple" transform="translate(635.259 349.905)">
      <g id="Grupo_10" data-name="Grupo 10">
        <path id="Caminho_8" data-name="Caminho 8" d="M829.117,375.439s-47.554,22.291-85.7,8.421-73.146-29.226-98.492,10.65S623.38,506.144,656.4,563.061s45.676,67.407,69.677,69.056,29.262-7.626,43.1-9.679,29.878,6.521,45.279,6.571,29.405-15.9,29.405-15.9Z" transform="translate(-628.403 -300.27)" fill="url(#linear-gradient-3)"/>
        <path id="Caminho_9" data-name="Caminho 9" d="M827.344,383.933C830.781,424.5,795.4,479.786,808.173,501.5s-3.806,104.455-40.079,111.678c-18.844,3.753-27.491,12.008-31.462,19.078,16.2-1.021,21.776-8,33.553-9.746,13.835-2.053,29.878,6.521,45.279,6.571s29.405-15.9,29.405-15.9L830.2,376.773C828.03,376.921,826.944,379.2,827.344,383.933Z" transform="translate(-629.409 -300.343)" fill="#6ad419"/>
        <path id="Caminho_10" data-name="Caminho 10" d="M697.435,576.855c-29.638,7.237-30.3-33-22.868-53.3s-29.721-54.984-13.763-61.09,15.249,29.883,28.646,15.022-28.258-47.554-23.3-72.426c3.9-19.567,38.753-27.289,53.447-29.692-28.754-9.4-54.7-12.254-74.663,19.147C619.583,434.386,623.38,506.144,656.4,563.061s45.676,67.407,69.677,69.056a72.275,72.275,0,0,0,9.681.058C735.972,607.006,718.577,571.692,697.435,576.855Z" transform="translate(-628.403 -300.27)" opacity="0.3" fill="url(#linear-gradient-4)"/>
        <g id="Grupo_6" data-name="Grupo 6" transform="translate(86.696)">
          <path id="Caminho_11" data-name="Caminho 11" d="M767.214,344.643s14.9-38.786,45.534-43.1,66.444,0,66.444,0-11.65,30.633-40.125,52.2-60.077,17.2-68.654,11.622S767.214,344.643,767.214,344.643Z" transform="translate(-716.374 -299.625)" fill="url(#linear-gradient-5)"/>
          <path id="Caminho_12" data-name="Caminho 12" d="M766.841,391.609a184.555,184.555,0,0,0,38.029-5.822c19.486-5.28,23.524,5.822-9.266,14.451s-51.7,5.177-68.528-4.531-12.3-14.021-1.726-14.669S748.405,393.416,766.841,391.609Z" transform="translate(-715.913 -300.382)" fill="#6ad419"/>
          <path id="Caminho_13" data-name="Caminho 13" d="M763.521,396.523s3.452,4.027,6.184,0a164.9,164.9,0,0,0-1.15-44.583c-2.229-12.735-6.352-21.462-9.59-26.716a7.18,7.18,0,0,0-10.391-1.962l-.224.166a7.161,7.161,0,0,0-1.434,10.087,80.641,80.641,0,0,1,11.93,23.674A105.111,105.111,0,0,1,763.521,396.523Z" transform="translate(-716.188 -299.832)" fill="url(#linear-gradient-6)"/>
        </g>
        <g id="Grupo_9" data-name="Grupo 9" transform="translate(21.142 95.039)">
          <g id="Grupo_7" data-name="Grupo 7" transform="translate(0 14.733)">
            <path id="Caminho_14" data-name="Caminho 14" d="M653.935,466.527a3.307,3.307,0,0,0,.37-.02,3.4,3.4,0,0,0,3.019-3.75c-2.024-18.726-.06-36.024,5.389-47.46a3.4,3.4,0,0,0-6.146-2.929c-5.977,12.543-8.168,31.175-6.012,51.12A3.4,3.4,0,0,0,653.935,466.527Z" transform="translate(-649.743 -410.427)" fill="#fff"/>
          </g>
          <g id="Grupo_8" data-name="Grupo 8" transform="translate(16.227)">
            <path id="Caminho_15" data-name="Caminho 15" d="M669.53,405.131a3.385,3.385,0,0,0,1.815-.527,12.676,12.676,0,0,1,7.282-2.24,3.4,3.4,0,0,0,0-6.808,19.439,19.439,0,0,0-10.918,3.291,3.405,3.405,0,0,0,1.821,6.284Z" transform="translate(-666.123 -395.556)" fill="#fff"/>
          </g>
        </g>
      </g>
    </g>
    <g id="scales" transform="translate(829.677 157.722)">
      <g id="Grupo_23" data-name="Grupo 23" transform="translate(0 0)">
        <g id="Grupo_13" data-name="Grupo 13" transform="translate(34.198)">
          <path id="Caminho_16" data-name="Caminho 16" d="M945.281,131.482s-8.554-22.265-26.139-24.742-38.142,0-38.142,0a75.79,75.79,0,0,0,23.034,29.969c16.347,12.384,34.487,9.875,39.411,6.671S945.281,131.482,945.281,131.482Z" transform="translate(-859.367 -105.639)" fill="url(#linear-gradient-7)"/>
          <path id="Caminho_17" data-name="Caminho 17" d="M880.8,270.331s-24.768-28.235-21.3-73.312S890.7,146.74,904.326,149.96s31.95,10.9,47.306,5.7,33.189-16.594,52.012-4.706,23.447,39.958,20.8,64.4-20.475,54.984-31.373,63.034Z" transform="translate(-859.164 -106.011)" fill="url(#linear-gradient-8)"/>
          <path id="Caminho_18" data-name="Caminho 18" d="M1004.451,150.951c-9.019-5.7-17.811-6.042-26.213-4.29,9.257,7.587-3.686,29.228.125,34.672,4.623,6.6,14.861-8.586,12.134,6.274s-5.53,21.135,2.844,21.466,4.175,13.87-6.62,38.967c-8.06,18.737-30.091,24.957-40.742,26.907l47.9,3.434c10.9-8.049,28.73-38.6,31.373-63.034S1023.275,162.839,1004.451,150.951Z" transform="translate(-859.971 -106.012)" opacity="0.3" fill="url(#linear-gradient-9)"/>
          <g id="Grupo_11" data-name="Grupo 11" transform="translate(137.977 68.76)">
            <path id="Caminho_19" data-name="Caminho 19" d="M1005.063,215.86a2.436,2.436,0,0,1-.269-.015,2.475,2.475,0,0,1-2.2-2.728c1.472-13.624.044-26.209-3.921-34.529a2.477,2.477,0,1,1,4.471-2.132c4.349,9.126,5.943,22.682,4.374,37.193A2.476,2.476,0,0,1,1005.063,215.86Z" transform="translate(-998.435 -175.044)" fill="#fff"/>
          </g>
          <path id="Caminho_20" data-name="Caminho 20" d="M917.427,273.171c-3.425-3.574-4.953-10.178-11.2-8.736-8.586,1.981-.991-6.935-5.614-14.53s-10.237,1.981-18.494-3.633,13.54-28.73,6.605-32.948-7.6,14.454-16.181,7.519c-6.016-4.858-6.115-34.684-5.635-52.1-3.743,6.985-6.469,16.27-7.409,28.492-3.467,45.077,21.3,73.312,21.3,73.312Z" transform="translate(-859.164 -106.225)" fill="#c7283a"/>
          <g id="Grupo_12" data-name="Grupo 12" transform="translate(124.274 58.041)">
            <path id="Caminho_21" data-name="Caminho 21" d="M993.7,171.191a2.462,2.462,0,0,1-1.321-.383,9.223,9.223,0,0,0-5.3-1.63,2.477,2.477,0,0,1,0-4.954,14.141,14.141,0,0,1,7.942,2.4,2.477,2.477,0,0,1-1.325,4.571Z" transform="translate(-984.604 -164.224)" fill="#fff"/>
          </g>
          <path id="Caminho_22" data-name="Caminho 22" d="M945.547,158.443a105.975,105.975,0,0,1-21.83-3.343c-11.186-3.032-13.5,3.343,5.319,8.3s29.68,2.972,39.339-2.6,7.059-8.049.991-8.421S956.131,159.48,945.547,158.443Z" transform="translate(-859.684 -106.073)" fill="#c7283a"/>
          <path id="Caminho_23" data-name="Caminho 23" d="M947.878,161.265s-1.981,2.311-3.551,0a94.681,94.681,0,0,1,.661-25.594,43.338,43.338,0,0,1,5.505-15.336,4.121,4.121,0,0,1,5.964-1.126l.129.1a4.111,4.111,0,0,1,.823,5.791,46.332,46.332,0,0,0-6.849,13.59A60.334,60.334,0,0,0,947.878,161.265Z" transform="translate(-859.95 -105.757)" fill="url(#linear-gradient-10)"/>
        </g>
        <rect id="Retângulo_1" data-name="Retângulo 1" width="237.56" height="237.56" rx="45.749" transform="translate(0 192.491)" fill="url(#linear-gradient-11)"/>
        <g id="Grupo_22" data-name="Grupo 22" transform="translate(21.529 214.02)">
          <circle id="Elipse_15" data-name="Elipse 15" cx="97.251" cy="97.251" r="97.251" fill="url(#linear-gradient-12)"/>
          <g id="Grupo_14" data-name="Grupo 14" transform="translate(96.26 9.907)">
            <rect id="Retângulo_2" data-name="Retângulo 2" width="1.981" height="16.181" fill="#1d164d"/>
          </g>
          <g id="Grupo_15" data-name="Grupo 15" transform="translate(34.789 34.789)">
            <rect id="Retângulo_3" data-name="Retângulo 3" width="1.981" height="16.182" transform="translate(0 1.401) rotate(-44.999)" fill="#1d164d"/>
          </g>
          <g id="Grupo_16" data-name="Grupo 16" transform="translate(9.907 96.26)">
            <rect id="Retângulo_4" data-name="Retângulo 4" width="16.182" height="1.981" fill="#1d164d"/>
          </g>
          <g id="Grupo_17" data-name="Grupo 17" transform="translate(34.789 146.87)">
            <rect id="Retângulo_5" data-name="Retângulo 5" width="16.181" height="1.981" transform="translate(0 11.442) rotate(-45)" fill="#1d164d"/>
          </g>
          <g id="Grupo_18" data-name="Grupo 18" transform="translate(96.26 168.413)">
            <rect id="Retângulo_6" data-name="Retângulo 6" width="1.981" height="16.181" fill="#1d164d"/>
          </g>
          <g id="Grupo_19" data-name="Grupo 19" transform="translate(146.87 146.87)">
            <rect id="Retângulo_7" data-name="Retângulo 7" width="1.981" height="16.181" transform="translate(0 1.401) rotate(-45.001)" fill="#1d164d"/>
          </g>
          <g id="Grupo_20" data-name="Grupo 20" transform="translate(168.413 96.26)">
            <rect id="Retângulo_8" data-name="Retângulo 8" width="16.182" height="1.981" fill="#1d164d"/>
          </g>
          <g id="Grupo_21" data-name="Grupo 21" transform="translate(146.87 34.789)">
            <rect id="Retângulo_9" data-name="Retângulo 9" width="16.182" height="1.981" transform="translate(0 11.442) rotate(-45)" fill="#1d164d"/>
          </g>
        </g>
        <path id="Caminho_24" data-name="Caminho 24" d="M937.405,403.426l-9.907-7.861-18,24.039,90.755,29.872-45.377-35.4S957.715,399.793,937.405,403.426Z" transform="translate(-825.434 -108.334)" fill="#1d164d"/>
        <rect id="Retângulo_10" data-name="Retângulo 10" width="91.888" height="11.765" transform="translate(72.836 180.418)" fill="url(#linear-gradient-13)"/>
        <path id="Retângulo_11" data-name="Retângulo 11" d="M0,0H147.04a0,0,0,0,1,0,0V0a16.1,16.1,0,0,1-16.1,16.1H16.1A16.1,16.1,0,0,1,0,0V0A0,0,0,0,1,0,0Z" transform="translate(45.26 164.319)" fill="url(#linear-gradient-14)"/>
      </g>
    </g>
    <g id="milk" transform="translate(1115.578 255.267)">
      <g id="Grupo_24" data-name="Grupo 24" transform="translate(0)">
        <rect id="Retângulo_12" data-name="Retângulo 12" width="250.422" height="330.132" transform="translate(0 95.194)" fill="url(#linear-gradient-15)"/>
        <rect id="Retângulo_13" data-name="Retângulo 13" width="78.83" height="330.132" transform="translate(171.592 95.194)" fill="url(#linear-gradient-16)"/>
        <path id="Caminho_25" data-name="Caminho 25" d="M1325.845,299.535H1286.43l19.708-34.722,19.708-34.722,19.708,34.722,19.708,34.722Z" transform="translate(-1114.838 -204.341)" fill="#4099f1"/>
        <path id="Caminho_26" data-name="Caminho 26" d="M1152.75,230.092h171.486l-39.415,69.443H1113.335Z" transform="translate(-1113.229 -204.341)" fill="url(#linear-gradient-17)"/>
        <rect id="Retângulo_14" data-name="Retângulo 14" width="171.486" height="25.751" transform="translate(39.521)" fill="#acd4f3"/>
        <rect id="Retângulo_15" data-name="Retângulo 15" width="136.4" height="197.841" transform="translate(0 143.025)" fill="#fff" opacity="0.3"/>
      </g>
    </g>
    <g id="banana" transform="translate(720.886 472.574)">
      <g id="Grupo_25" data-name="Grupo 25">
        <path id="Caminho_27" data-name="Caminho 27" d="M769.983,471.451s-15.521-18.658-17.667-28.895-5.944-12.219-15.191-15.687a74.144,74.144,0,0,0-13.293-3.318,7.757,7.757,0,0,0-9,7.672v4.71a23.432,23.432,0,0,0,9.327,18.613c7.688,5.858,17.456,16.055,18.249,30.43,1.321,23.957-4.082,50.8,27.574,83.564s88.049,55.176,144.333,61.767,152.905-15.2,198.216-59.291,48.506-58.781,48.4-73.312.384-23.777,5.338-28.895c0,0,2.5-15.459-6.182-19.2a27.87,27.87,0,0,0-22.714.051c-5.779,2.642-9.865,4.954-20.02,6.687s-51.97,30.8-83.673,47.637-64.455,30.712-104.219,14.2-95.243-43.5-119.35-47.838S769.983,471.451,769.983,471.451Z" transform="translate(-714.833 -423.446)" fill="#fed300"/>
        <path id="Caminho_28" data-name="Caminho 28" d="M854.361,501.713c45.1,37.035,67.377,46.983,92.809,47.458s5.124-8.253,13.049-13.8,14.365,17.5,32.2,17.122-3.586-13.646,6.007-20.78,67.6-7.83,72.9-26.158c2.606-9,5.261-19.842,10.158-29.032-15.086,9.24-32.315,19.92-47.289,27.876-31.7,16.842-64.455,30.712-104.219,14.2s-95.243-43.5-119.35-47.838-40.124,1.11-40.124,1.11S809.265,464.678,854.361,501.713Z" transform="translate(-715.351 -423.87)" fill="#fff" opacity="0.3"/>
        <path id="Caminho_29" data-name="Caminho 29" d="M1160.927,497.7c-.111-14.53.384-23.777,5.338-28.895,0,0,1.551-9.635-2.067-15.535h0c-1.571,9.4-8.006,16.031-13.994,17.067s2.356,9.531-4.579,25.125-39.151,17.665-52.607,47.315-19.714,22.622-24.044,5.965-61.717,32.508-93.195,49.7-72.216-19.176-138.563-20.5-84.9-51.517-80.278-73.312-1.651-40.949-17.172-52.626c-11.209-8.432-6.23-19.58-2.6-25.126l-.046-.018a74.144,74.144,0,0,0-13.293-3.318,7.757,7.757,0,0,0-9,7.672v4.71a23.432,23.432,0,0,0,9.327,18.613c7.688,5.858,17.456,16.055,18.249,30.43,1.321,23.957-4.082,50.8,27.574,83.564s88.049,55.176,144.333,61.767,152.905-15.2,198.216-59.291S1161.038,512.235,1160.927,497.7Z" transform="translate(-714.833 -423.446)" fill="#eaad03"/>
        <path id="Caminho_30" data-name="Caminho 30" d="M750.276,436.139c-2.412-4.931-6.271-6.693-13.142-9.27a74.143,74.143,0,0,0-13.293-3.318,7.72,7.72,0,0,0-7.928,3.741c1.134,9.849,15.681,12.265,25.515,11.631C746.764,438.578,749.181,437.292,750.276,436.139Z" transform="translate(-714.843 -423.446)" fill="#1d164d"/>
        <path id="Caminho_31" data-name="Caminho 31" d="M1164.185,449.83a29,29,0,0,0-7.948-2.181,22.165,22.165,0,0,0,4.724,12.857l9.407,8.528S1172.863,453.575,1164.185,449.83Z" transform="translate(-718.936 -423.671)" fill="#1d164d"/>
      </g>
    </g>
    <g id="straw" transform="translate(651.054 590.875)">
      <g id="Grupo_27" data-name="Grupo 27" transform="translate(0 0)">
        <path id="Caminho_32" data-name="Caminho 32" d="M739.931,582.328c24.13,35.831,8.588,54.928-16.392,63.568s-53.653,5.327-67.4-6.871-4.674-28.373-4.674-28.373c6.825,1.013,14.249-9.766,15.279-21.9s13.319-16.939,11.7-20.7-9.079-2.481-9.079-2.481,7.113-14.939,16.368-20.9S715.8,546.5,739.931,582.328Z" transform="translate(-644.385 -542.857)" fill="url(#linear-gradient-18)"/>
        <path id="Caminho_33" data-name="Caminho 33" d="M716.9,643.345c-6.956,3.75-12.14,5.372-11.08-4.556s-.981-16.391-4.865-17.734-.447,3.439-9.7,6.753c-6.777,2.428,5.074,12.162-19.965,11.664-19.342-.384-19.824-28.181-19.824-28.181l-.006.005c-.112.2-8.984,16.242,4.679,28.363,13.749,12.2,42.412,15.506,67.4,6.871q1.385-.479,2.729-1C722.841,643.8,720.413,641.449,716.9,643.345Z" transform="translate(-644.385 -543.493)" fill="#c7283a"/>
        <path id="Caminho_34" data-name="Caminho 34" d="M740.127,582.328c15.966,23.718,14.56,40.095,4.544,50.97a24.257,24.257,0,0,0-4.5-19.842c-12.577-17.352-31.1-1.645-31.031-22.093s-1.229-21.26-9.918-20.343-.129-6.2-3.129-14.72a2.874,2.874,0,0,0-.169-.425c-1.152-2.894-2.421-1.938-3.862.229-2.25,3.417-4.911,9.857-8.154,9.048-5.388-1.339-1.066,8.229-11.945,12.173,3.6-4.373,7.65-7.01,6.673-9.269-1.619-3.76-9.079-2.481-9.079-2.481s7.113-14.939,16.368-20.9S716,546.5,740.127,582.328Z" transform="translate(-644.58 -542.857)" opacity="0.3" fill="url(#linear-gradient-19)"/>
        <path id="Caminho_35" data-name="Caminho 35" d="M657.54,581.51s-3.769-1.134-7.232-6.08-4.631-4.894-5.728-2.953,1.486,10.039,11.484,14.078c0,0-9.138,12.474-4.638,24.312,6.825,1.012,14.25-9.774,15.278-21.9s13.316-16.94,11.7-20.7-9.084-2.479-9.084-2.479S662.163,568.048,657.54,581.51Z" transform="translate(-644.346 -543.068)" fill="url(#linear-gradient-20)"/>
        <g id="Grupo_26" data-name="Grupo 26" transform="translate(24.418 10.174)">
          <path id="Caminho_36" data-name="Caminho 36" d="M675.132,635.993a1.8,1.8,0,1,1-1.767,3.127c-.863-.487-4.372-4.533-4.372-4.533S674.268,635.505,675.132,635.993Z" transform="translate(-668.993 -553.884)" fill="#fbda91"/>
          <path id="Caminho_37" data-name="Caminho 37" d="M685.941,619.919a1.8,1.8,0,1,1-1.767,3.127c-.863-.488-4.372-4.534-4.372-4.534S685.079,619.431,685.941,619.919Z" transform="translate(-669.094 -553.734)" fill="#fbda91"/>
          <path id="Caminho_38" data-name="Caminho 38" d="M709.769,616.8A1.8,1.8,0,1,1,708,619.929c-.863-.487-4.372-4.533-4.372-4.533S708.906,616.315,709.769,616.8Z" transform="translate(-669.315 -553.705)" fill="#fbda91"/>
          <path id="Caminho_39" data-name="Caminho 39" d="M718.473,567.517a1.818,1.818,0,1,1-1.369,3.336c-1.048-.43-5.7-4.287-5.7-4.287S717.424,567.087,718.473,567.517Z" transform="translate(-669.387 -553.251)" fill="#f9e2b2"/>
          <path id="Caminho_40" data-name="Caminho 40" d="M716.02,593.468a1.8,1.8,0,1,1-1.767,3.126c-.863-.487-4.372-4.533-4.372-4.533S715.156,592.979,716.02,593.468Z" transform="translate(-669.373 -553.488)" fill="#f9e2b2"/>
          <path id="Caminho_41" data-name="Caminho 41" d="M700.663,577.807a1.8,1.8,0,1,1-1.767,3.127c-.863-.488-4.372-4.534-4.372-4.534S699.8,577.318,700.663,577.807Z" transform="translate(-669.23 -553.343)" fill="#fbda91"/>
          <path id="Caminho_42" data-name="Caminho 42" d="M696.136,555.98c-.839.117-2.49.2-3.862.229C693.715,554.042,694.984,553.086,696.136,555.98Z" transform="translate(-669.209 -553.136)" fill="#fbda91"/>
          <path id="Caminho_43" data-name="Caminho 43" d="M697.982,554.055c.2.729-.447,1.556-1.459,1.838a3.824,3.824,0,0,1-.408.077c-1.152-2.894-2.421-1.938-3.862.229-1.142.048-2.092.057-2.23.059a58.773,58.773,0,0,1,5.757-3.039A1.7,1.7,0,0,1,697.982,554.055Z" transform="translate(-669.188 -553.127)" fill="#f9e2b2"/>
          <path id="Caminho_44" data-name="Caminho 44" d="M719.371,632.857a1.8,1.8,0,1,1-1.767,3.126c-.863-.487-4.372-4.534-4.372-4.534S718.508,632.368,719.371,632.857Z" transform="translate(-669.404 -553.855)" fill="#fbda91"/>
        </g>
        <path id="Caminho_45" data-name="Caminho 45" d="M671.778,577.648c-.073-.006-3.042-.215-7.541,7.919-4.556,8.235-4.613,15.032-7.722,16.5-1.737.82-3.737-2.393-5.164-5.386a22.363,22.363,0,0,0,.13,14.3c6.825,1.013,14.25-9.774,15.278-21.9A20.406,20.406,0,0,1,671.778,577.648Z" transform="translate(-644.401 -543.18)" fill="#6bbc61"/>
      </g>
    </g>
    <g id="obj_1" data-name="obj 1" transform="translate(788.681 438.996)">
      <g id="Grupo_33" data-name="Grupo 33" transform="translate(0 0)">
        <g id="Grupo_29" data-name="Grupo 29" transform="translate(82.343 42.43)">
          <path id="Caminho_46" data-name="Caminho 46" d="M866.38,447.881l22.033,10.531V444.047L870.3,425.461a18.987,18.987,0,0,0-3.923-3.081Z" transform="translate(-866.38 -422.38)" fill="url(#linear-gradient-21)"/>
          <g id="Grupo_28" data-name="Grupo 28" transform="translate(0 12.642)">
            <path id="Caminho_47" data-name="Caminho 47" d="M878.14,451.224c-4.087-2.229-2.229-6.316-7.306-8.669-3.6-1.67-4.332-5.39-4.453-7.414V448l22.033,10.531-6-20.527C878.965,441.689,878.14,451.224,878.14,451.224Z" transform="translate(-866.38 -435.141)" fill="#c9e2f4"/>
          </g>
        </g>
        <path id="Caminho_48" data-name="Caminho 48" d="M909.923,474.515c-1.456.079-4.448.079-8.2.05l-.565-.01c-11.294-.109-28.958-.575-33.7-.7-.277,0-.515-.01-.7-.02l-.5-.01v9.035H813.26l9.778-53.112.159-.842A11.908,11.908,0,0,1,830.518,420l4.072-1.615h.01l10.432-4.131L857.009,419l4.815,1.5a18.691,18.691,0,0,1,4.062,1.813V457.1l35.834,7.628a18.158,18.158,0,0,0,4.527.416c2.853-.733,2.526-2.269,3.349-1.526s-.822,3.22-.822,3.22c6.846,1.486,9.323-1.981,10.729-.654S916.452,474.188,909.923,474.515Z" transform="translate(-783.543 -379.875)" fill="url(#linear-gradient-22)"/>
        <path id="Caminho_49" data-name="Caminho 49" d="M866.362,474.042v9.035H854.741c1.417-1.377,1.585-2.774-1.506-3.715-8.173-2.477-11.888-1.734-12.879-8.916s-15.069-6.341-14.365-17.833a63.155,63.155,0,0,0-.971-14.583,22.2,22.2,0,0,0,1.674,3.091l17.417,26.789a11.647,11.647,0,0,0,9,5.261Z" transform="translate(-783.652 -380.096)" fill="#4099f1"/>
        <path id="Caminho_50" data-name="Caminho 50" d="M846.177,406.249s-.413-1.486-4.458-5.036-5.449-13.292,1.651-14.118c0,0,.248-5.449,5.531-6.357s16.347.413,20.639-1.073,1.981,11.971-7.347,16.759A122.311,122.311,0,0,0,846.177,406.249Z" transform="translate(-783.776 -379.552)" fill="url(#linear-gradient-23)"/>
        <path id="Caminho_51" data-name="Caminho 51" d="M864.3,390.75s.165,13.622-.5,17.667-3.385,4.789-6.522,4.046v6.316l-2.972,4.334-9-9.082V401.813s-3.55-1.218-2.683-4.376,4.458-2.848,5.573.682a7.727,7.727,0,0,0,1.321-6.667S857.195,394.96,864.3,390.75Z" transform="translate(-783.814 -379.656)" fill="url(#linear-gradient-24)"/>
        <path id="Caminho_52" data-name="Caminho 52" d="M849.583,408.583s1.878,6.385,7.761,6.624v-2.578S852.184,411.844,849.583,408.583Z" transform="translate(-783.88 -379.822)" fill="#1d164d"/>
        <path id="Caminho_53" data-name="Caminho 53" d="M866.033,483.5v127h-13.4L837.55,523.95,803.46,610.5H789.64l23.4-127Z" transform="translate(-783.323 -380.518)" fill="url(#linear-gradient-25)"/>
        <path id="Caminho_54" data-name="Caminho 54" d="M973.143,482.845c-19.319,38.637-43.591,34.506-63.405,17.01S878.7,455.769,882.553,437.8s22.4-18.031,22.4-18.031c2.477,6.44,15.514,7.6,26.581,2.526s21.3,3.259,23.777,0S953,413.169,953,413.169s16.505-1.159,26.254,3.963S992.462,444.208,973.143,482.845Z" transform="translate(-784.18 -379.863)" fill="url(#linear-gradient-26)"/>
        <path id="Caminho_55" data-name="Caminho 55" d="M909.242,492.568c-6.687-4.211-10.65-7.926-1.486-11.888s13.788-8.919,13.045-12.961-3.214,1.3-10.65-5.119c-5.449-4.706-8.091,10.4-19.979-11.641-9.183-17.027,14.778-31.125,14.778-31.125l-.008,0c-.23,0-18.559.172-22.389,18.031-3.854,17.971,7.371,44.552,27.185,62.058q1.1.97,2.217,1.882C911.771,497.968,912.625,494.7,909.242,492.568Z" transform="translate(-784.18 -379.926)" fill="#c7283a"/>
        <path id="Caminho_56" data-name="Caminho 56" d="M910.753,474.976c6.529-.327,10.987-7.014,9.58-8.332s-3.883,2.14-10.729.654c0,0,1.645-2.477.822-3.22s-.5.793-3.349,1.526a18.317,18.317,0,0,1-4.528-.423h0v9.842C906.307,475.058,909.3,475.051,910.753,474.976Z" transform="translate(-784.373 -380.336)" fill="url(#linear-gradient-27)"/>
        <path id="Caminho_57" data-name="Caminho 57" d="M789.62,611.69h13.82l-4.547,11.532H787.5Z" transform="translate(-783.303 -381.71)" fill="url(#linear-gradient-28)"/>
        <path id="Caminho_58" data-name="Caminho 58" d="M866.624,611.69v11.532H855.231L853.22,611.69Z" transform="translate(-783.914 -381.71)" fill="url(#linear-gradient-29)"/>
        <path id="Caminho_59" data-name="Caminho 59" d="M901.812,464.755V474.6l-.565-.01-33.7-.7-.7-.02-.5-.01-13.254-.868a11.636,11.636,0,0,1-9-5.268l-17.419-26.786a22.086,22.086,0,0,1-3.547-11.155l.159-.842a11.908,11.908,0,0,1,7.321-8.906l4.072-1.615h.238a11.025,11.025,0,0,1,10.194,6.836l11.006,29.783,9.859,2.1Z" transform="translate(-783.634 -379.913)" fill="url(#linear-gradient-30)"/>
        <path id="Caminho_60" data-name="Caminho 60" d="M848.606,497.152,838,524.077l3.125,17.937Z" transform="translate(-783.773 -380.645)" fill="#1d164d"/>
        <g id="Grupo_30" data-name="Grupo 30" transform="translate(0 234.463)">
          <path id="Caminho_61" data-name="Caminho 61" d="M788.756,616.215h0a3.736,3.736,0,0,0-3.675,3.06l-1.754,9.524a3.775,3.775,0,0,0,3.712,4.458h37.325a1.487,1.487,0,0,0,1.486-1.486h0a2.951,2.951,0,0,0-1.728-2.686l-23.37-10.639S791.456,623.362,788.756,616.215Z" transform="translate(-783.264 -616.215)" fill="url(#linear-gradient-31)"/>
          <path id="Caminho_62" data-name="Caminho 62" d="M804.695,623.305a11,11,0,0,1,4.93-.594c.57.13.738.285.755.334.061.179-.434.791-.7,1.119-.552.681-1.177,1.452-1.04,2.266a1.635,1.635,0,0,0,.832,1.111,2.618,2.618,0,0,0,1.41.437,5.175,5.175,0,0,0,2.82-1.294,7.64,7.64,0,0,1,2.365-1.307l-1.257-.573a12.566,12.566,0,0,0-1.686,1.075c-1.321.948-2.115,1.452-3.127.822a.727.727,0,0,1-.38-.435c-.062-.374.434-.987.832-1.478a3.671,3.671,0,0,0,.91-1.555l-3.5-1.593a19.113,19.113,0,0,0-3.428.711,8.664,8.664,0,0,1-1.953.407,1.528,1.528,0,0,1,.1-.347c.441-1.118,1.734-1.615,2.949-1.833l-1.418-.645a3.849,3.849,0,0,0-2.453,2.113c-.091.229-.366.924.049,1.385C802.207,623.987,803.2,623.719,804.695,623.305Z" transform="translate(-783.433 -616.25)" fill="#fff"/>
        </g>
        <path id="Caminho_63" data-name="Caminho 63" d="M973.6,482.845c-12.79,25.57-27.74,32.406-42.135,29.038A24.259,24.259,0,0,0,946.529,498.2c8.916-19.487-13.87-27.878,3.963-37.885s17.9-11.532,12.83-18.645,5.33-3.16,11.274-9.966a3,3,0,0,0,.287-.357c1.952-2.427.5-3.061-2.1-3.25-4.082-.277-11,.575-11.889-2.645-1.486-5.35-7.688,3.121-16.475-4.409,5.578.981,9.867,3.21,11.354,1.248,2.477-3.259-2.308-9.124-2.308-9.124s16.505-1.159,26.254,3.963S992.923,444.208,973.6,482.845Z" transform="translate(-784.642 -379.863)" opacity="0.3" fill="url(#linear-gradient-32)"/>
        <g id="Grupo_31" data-name="Grupo 31" transform="translate(64.597 234.463)">
          <path id="Caminho_64" data-name="Caminho 64" d="M853.959,616.215h0a3.736,3.736,0,0,0-3.675,3.06L848.53,628.8a3.775,3.775,0,0,0,3.712,4.458h37.325a1.487,1.487,0,0,0,1.486-1.486h0a2.951,2.951,0,0,0-1.729-2.686L866.58,618.563S856.659,623.362,853.959,616.215Z" transform="translate(-848.467 -616.215)" fill="url(#linear-gradient-31)"/>
          <path id="Caminho_65" data-name="Caminho 65" d="M866.917,623.285c.516.574,1.537.3,3.082-.13,1.569-.432,3.522-.969,5.087-.613.588.134.762.294.779.345.064.184-.447.815-.72,1.154-.57.7-1.215,1.5-1.073,2.338a1.688,1.688,0,0,0,.858,1.145,2.7,2.7,0,0,0,1.454.451,5.344,5.344,0,0,0,2.91-1.334,8.9,8.9,0,0,1,2.153-1.245l-1.227-.568a14.6,14.6,0,0,0-1.523.982c-1.363.979-2.183,1.5-3.227.849a.744.744,0,0,1-.391-.449c-.064-.385.448-1.018.859-1.525a4.429,4.429,0,0,0,.886-1.429l-3.855-1.783a21.371,21.371,0,0,0-3.242.7,8.913,8.913,0,0,1-2.014.421,1.508,1.508,0,0,1,.1-.359,3.582,3.582,0,0,1,2.81-1.842l-1.392-.644a3.877,3.877,0,0,0-2.369,2.11C866.773,622.092,866.489,622.809,866.917,623.285Z" transform="translate(-848.636 -616.248)" fill="#fff"/>
        </g>
        <path id="Caminho_66" data-name="Caminho 66" d="M933.732,410.477s-.867-3.839,1.734-9.288,1.981-6.44-.248-6.44-8.008,6.234-6.605,16.924c0,0-15.356-1.816-23.446,7.926,2.477,6.44,15.52,7.6,26.584,2.523s21.3,3.256,23.777,0S953.216,413,953.216,413,947.726,407.877,933.732,410.477Z" transform="translate(-784.397 -379.693)" fill="url(#linear-gradient-34)"/>
        <g id="Grupo_32" data-name="Grupo 32" transform="translate(107.415 46.323)">
          <path id="Caminho_67" data-name="Caminho 67" d="M895.278,452.568a1.8,1.8,0,1,1-3.591,0c0-.992,1.8-6.037,1.8-6.037S895.278,451.577,895.278,452.568Z" transform="translate(-891.687 -426.498)" fill="#fbda91"/>
          <path id="Caminho_68" data-name="Caminho 68" d="M914.591,454.068a1.8,1.8,0,1,1-3.591,0c0-.992,1.8-6.037,1.8-6.037S914.591,453.077,914.591,454.068Z" transform="translate(-891.866 -426.512)" fill="#fbda91"/>
          <path id="Caminho_69" data-name="Caminho 69" d="M929.028,473.279a1.8,1.8,0,0,1-3.591,0c0-.992,1.8-6.037,1.8-6.037S929.028,472.288,929.028,473.279Z" transform="translate(-892.001 -426.69)" fill="#fbda91"/>
          <path id="Caminho_70" data-name="Caminho 70" d="M976.225,456.6a1.818,1.818,0,1,1-3.577.45c-.142-1.124.927-7.07.927-7.07S976.085,455.477,976.225,456.6Z" transform="translate(-892.44 -426.53)" fill="#f9e2b2"/>
          <path id="Caminho_71" data-name="Caminho 71" d="M952.419,467.237a1.8,1.8,0,0,1-3.591,0c0-.992,1.8-6.037,1.8-6.037S952.419,466.246,952.419,467.237Z" transform="translate(-892.218 -426.634)" fill="#f9e2b2"/>
          <path id="Caminho_72" data-name="Caminho 72" d="M958.5,446.162a1.8,1.8,0,0,1-3.591,0c0-.992,1.8-6.037,1.8-6.037S958.5,445.171,958.5,446.162Z" transform="translate(-892.275 -426.438)" fill="#fbda91"/>
          <path id="Caminho_73" data-name="Caminho 73" d="M975.27,431.49c-.515-.674-1.4-2.071-2.1-3.25C975.766,428.428,977.222,429.062,975.27,431.49Z" transform="translate(-892.444 -426.328)" fill="#fbda91"/>
          <path id="Caminho_74" data-name="Caminho 74" d="M977.845,432.155a1.705,1.705,0,0,1-2.318-.367,3.933,3.933,0,0,1-.268-.317c1.952-2.427.5-3.061-2.1-3.25-.6-.971-1.08-1.793-1.149-1.912a58.643,58.643,0,0,1,5.479,3.517A1.7,1.7,0,0,1,977.845,432.155Z" transform="translate(-892.434 -426.31)" fill="#f9e2b2"/>
          <path id="Caminho_75" data-name="Caminho 75" d="M919.778,489.537a1.8,1.8,0,0,1-3.591,0c0-.992,1.8-6.037,1.8-6.037S919.778,488.546,919.778,489.537Z" transform="translate(-891.915 -426.842)" fill="#fbda91"/>
        </g>
        <path id="Caminho_76" data-name="Caminho 76" d="M944.171,421.035c-.031-.067-1.31-2.754-10.6-2.669-9.412.086-15.356,3.381-18.163,1.4-1.568-1.109.244-4.43,2.148-7.147a22.365,22.365,0,0,0-12.385,7.15c2.477,6.44,15.52,7.6,26.584,2.523A20.393,20.393,0,0,1,944.171,421.035Z" transform="translate(-784.397 -379.859)" fill="#6bbc61"/>
      </g>
    </g>
    <g id="obj_2" data-name="obj 2" transform="translate(952.454 444.953)">
      <g id="Grupo_39" data-name="Grupo 39" transform="translate(0 0)">
        <path id="Caminho_77" data-name="Caminho 77" d="M1075.05,631.541h-15.425l-26.4-52.705a60.088,60.088,0,0,1-4.111-10.65l-6.935-24.678-4.528,17.466-3.9,70.568H998.8l-4.765-74.352a21.205,21.205,0,0,1,.178-4.339l5.409-36.23V503l7.42-.327,42.432.327,1.159,48.545,1.813,14.365Z" transform="translate(-944.997 -396.56)" fill="url(#linear-gradient-35)"/>
        <path id="Caminho_78" data-name="Caminho 78" d="M1017.873,561.139l4.528-17.471-4.214-23.16Z" transform="translate(-945.218 -396.726)" fill="#1d164d"/>
        <path id="Caminho_79" data-name="Caminho 79" d="M994.5,449.122s4.582-3.344,4.458-18.576-2.229-27.864,4.953-32.693,15.108-1.238,16.037,3.591c0,0,3.034-2.477,5.015.124s1.734,21.011,13.622,31.083,11.723,21.8,5.449,27.41S994.5,449.122,994.5,449.122Z" transform="translate(-945.001 -395.565)" fill="url(#linear-gradient-36)"/>
        <path id="Caminho_80" data-name="Caminho 80" d="M1066.852,543.971c-15.851,14.861-42.353,8.916-42.353,8.916-6.439-19.566-9-50.526-9-50.526l-8.916-.33a244.794,244.794,0,0,0,6.769,52.342c-15.356-.327-22.786-9.907-22.786-9.907,7.926-21.3,9.293-51.14,9.293-51.14l-32.713,1-3.705.109a27.5,27.5,0,0,1-11.433-1.159c-6.6-1.981-8.916-7.014-6.6-6.6s10.363-.476,10.363-.476c-1.248-1.367-1.179-4.27-.624-4.27s.931,1.664,3.16,2.1a31.277,31.277,0,0,1,4.518,1.318l11.036-2.586,25.62-5.994-.991-8.094-21.815,8.193a147.259,147.259,0,0,0,7.351-19.121L996.621,444.7a21.071,21.071,0,0,1,6.331-4.478l4.953-2.259,11.581-3.656,10.611,2.348a15.56,15.56,0,0,1,3.864,1.427,15.264,15.264,0,0,1,8.074,12.334c.089,1.189.2,2.457.307,3.784v.01c.931,11.324,2.467,26.977,4.7,39.559C1051,516.231,1066.852,543.971,1066.852,543.971Z" transform="translate(-944.537 -395.925)" fill="url(#linear-gradient-37)"/>
        <g id="Grupo_34" data-name="Grupo 34" transform="translate(54.126 58.288)">
          <path id="Caminho_81" data-name="Caminho 81" d="M999.17,507.74h0Z" transform="translate(-999.17 -454.896)" fill="#c9e2f4"/>
          <path id="Caminho_82" data-name="Caminho 82" d="M1045.487,480.168c-.059-.406-.733-3.725-5.122-5.211-4.676-1.6-10.155,4.8-12.632,15.207s-11.72,12.384-20.636,12.057c-5.419-.208-7.173,1.694-7.718,3.21.773-7.113.991-11.918.991-11.918H1012.6a10.847,10.847,0,0,0,9.234-5.152l21.022-33.961c.307,3.715.674,7.9,1.12,12.285S1044.913,475.641,1045.487,480.168Z" transform="translate(-999.172 -454.4)" fill="#c9e2f4"/>
        </g>
        <path id="Caminho_83" data-name="Caminho 83" d="M1026.739,439.92a17.712,17.712,0,0,0-8.362,8.589l-6.172,13.632-5.994,13.226-.614.149-5.6,1.308c6.608-2.308,2.645-10.4,5.7-11.572,2.1-.793,4.379-3.775,6.5-8.243a49.89,49.89,0,0,0,2.727-6.237C1017.548,442.877,1026.016,440.088,1026.739,439.92Z" transform="translate(-945.052 -395.977)" fill="#c9e2f4"/>
        <path id="Caminho_84" data-name="Caminho 84" d="M1012.36,454.56c.993-14.45,7.693-20.247,7.693-20.247l-11.579,3.653s-5.406,24.249-1.321,64.066l8.916.33S1011.366,469.01,1012.36,454.56Z" transform="translate(-945.105 -395.925)" fill="url(#linear-gradient-38)"/>
        <path id="Caminho_85" data-name="Caminho 85" d="M1012.258,462.3l-5.994,13.226-.614.149c-.05-3.666,0-7.083.1-10.264,2.1-.793,4.379-3.775,6.5-8.243C1012.208,458.745,1012.208,460.469,1012.258,462.3Z" transform="translate(-945.105 -396.137)" fill="#b122e5"/>
        <path id="Caminho_86" data-name="Caminho 86" d="M1016.113,410.5s-8.751,3.715-14.447,0c0,0-.8,18.467,1.816,20.887a4.827,4.827,0,0,0,4.953.826v5.531l2.848,3.9,8.731-7.554V421.956s4.561-3.076,2.58-5.883-4.294,2.229-4.294,3.715a6.3,6.3,0,0,0-1.445-2.395C1015.618,415.949,1016.113,410.5,1016.113,410.5Z" transform="translate(-945.067 -395.704)" fill="url(#linear-gradient-39)"/>
        <path id="Caminho_87" data-name="Caminho 87" d="M1015,428.063a15.982,15.982,0,0,1-6.5,4.314v3.243C1013.356,434.182,1015,428.063,1015,428.063Z" transform="translate(-945.131 -395.867)" fill="#1d164d"/>
        <path id="Caminho_88" data-name="Caminho 88" d="M1042.342,454.239v.01l-21.018,33.966a10.862,10.862,0,0,1-9.237,5.147H999.861l-32.713,1-3.705.109a27.5,27.5,0,0,1-11.433-1.159c-6.6-1.981-8.916-7.014-6.6-6.6s10.363-.476,10.363-.476c-1.248-1.367-1.179-4.27-.624-4.27s.931,1.664,3.16,2.1a31.28,31.28,0,0,1,4.518,1.318l11.036-2.586,25.62-5.994,6.212-1.456,12.169-26.853a17.672,17.672,0,0,1,16.1-10.378h0a15.264,15.264,0,0,1,8.074,12.334C1042.125,451.643,1042.233,452.911,1042.342,454.239Z" transform="translate(-944.537 -395.96)" fill="url(#linear-gradient-40)"/>
        <path id="Caminho_89" data-name="Caminho 89" d="M958.311,484.48c-2.229-.436-2.606-2.1-3.16-2.1s-.624,2.9.624,4.27c0,0-8.054.882-10.363.476s0,4.617,6.6,6.6a27.5,27.5,0,0,0,11.433,1.159l-.614-9.085A31.28,31.28,0,0,0,958.311,484.48Z" transform="translate(-944.537 -396.372)" fill="url(#linear-gradient-41)"/>
        <path id="Caminho_90" data-name="Caminho 90" d="M998.8,468.825l-1.156-18.658s-3.669,9.412-3.9,13.87-4.027,1.3-7.659,4.447c-3.4,2.947-1.013-3.951-3.542-5.116-1.5,4.264-3.332,8.807-5.56,13.65Z" transform="translate(-944.838 -396.072)" fill="#c9e2f4"/>
        <path id="Caminho_91" data-name="Caminho 91" d="M998.85,632.75h14.94l-.713,12.879h-13.4Z" transform="translate(-945.042 -397.77)" fill="url(#linear-gradient-42)"/>
        <path id="Caminho_92" data-name="Caminho 92" d="M1080.094,645.629h-13.4l-6.45-12.879h15.426Z" transform="translate(-945.612 -397.77)" fill="url(#linear-gradient-42)"/>
        <g id="Grupo_36" data-name="Grupo 36" transform="translate(31.517 237.453)">
          <path id="Caminho_93" data-name="Caminho 93" d="M1013.444,635.246h0a3.737,3.737,0,0,1,3.675,3.06l1.753,9.524a3.774,3.774,0,0,1-3.712,4.458H977.836a1.486,1.486,0,0,1-1.486-1.486h0a2.951,2.951,0,0,1,1.728-2.686l20.847-10.638S1010.744,642.394,1013.444,635.246Z" transform="translate(-976.35 -635.246)" fill="url(#linear-gradient-44)"/>
          <g id="Grupo_35" data-name="Grupo 35" transform="translate(9.253 2.909)">
            <path id="Caminho_94" data-name="Caminho 94" d="M987.368,645.4a5.534,5.534,0,0,0,3.014,1.383,2.8,2.8,0,0,0,1.506-.467,1.755,1.755,0,0,0,.89-1.187c.146-.87-.522-1.7-1.112-2.421a4.949,4.949,0,0,1-.715-1.054l-.951.485a5.889,5.889,0,0,0,.844,1.235c.426.525.956,1.181.89,1.579a.77.77,0,0,1-.405.465c-1.081.674-1.931.135-3.342-.879-.368-.264-.76-.528-1.167-.778l-1.129.577A12.24,12.24,0,0,1,987.368,645.4Z" transform="translate(-985.69 -638.214)" fill="#fff"/>
            <path id="Caminho_95" data-name="Caminho 95" d="M997.335,640.735a22.937,22.937,0,0,0-3.214-.7l-2.047,1.044a12.677,12.677,0,0,1,4.979.68c1.6.442,2.658.729,3.193.135.443-.492.149-1.235.052-1.479a4.069,4.069,0,0,0-2.552-2.229l-1.377.7a3.741,3.741,0,0,1,2.945,1.915,1.58,1.58,0,0,1,.107.371A9.2,9.2,0,0,1,997.335,640.735Z" transform="translate(-985.749 -638.182)" fill="#fff"/>
          </g>
        </g>
        <g id="Grupo_38" data-name="Grupo 38" transform="translate(93.808 237.453)">
          <path id="Caminho_96" data-name="Caminho 96" d="M1076.319,635.246h0a3.736,3.736,0,0,1,3.675,3.06l1.754,9.524a3.775,3.775,0,0,1-3.712,4.458h-37.325a1.487,1.487,0,0,1-1.486-1.486h0a2.95,2.95,0,0,1,1.729-2.686l21.4-10.638S1073.619,642.394,1076.319,635.246Z" transform="translate(-1039.225 -635.246)" fill="url(#linear-gradient-45)"/>
          <path id="Caminho_97" data-name="Caminho 97" d="M1076.319,635.246h0a3.736,3.736,0,0,1,3.675,3.06l1.754,9.524a3.775,3.775,0,0,1-3.712,4.458h-37.325a1.487,1.487,0,0,1-1.486-1.486h0a2.95,2.95,0,0,1,1.729-2.686l21.4-10.638S1073.619,642.394,1076.319,635.246Z" transform="translate(-1039.225 -635.246)" fill="url(#linear-gradient-45)"/>
          <g id="Grupo_37" data-name="Grupo 37" transform="translate(9.276 3.237)">
            <path id="Caminho_98" data-name="Caminho 98" d="M1050.464,645.574a5.382,5.382,0,0,0,2.931,1.344,2.72,2.72,0,0,0,1.465-.454,1.7,1.7,0,0,0,.865-1.154c.143-.846-.507-1.649-1.081-2.356-.276-.341-.791-.977-.726-1.163a.167.167,0,0,1,.025-.03l-.968.481a4.823,4.823,0,0,0,.87,1.36c.414.511.93,1.148.865,1.537a.746.746,0,0,1-.394.452c-1.051.656-1.877.131-3.25-.855-.419-.3-.869-.6-1.342-.877l-1.135.565A10.434,10.434,0,0,1,1050.464,645.574Z" transform="translate(-1048.588 -638.543)" fill="#fff"/>
            <path id="Caminho_99" data-name="Caminho 99" d="M1059.884,642.032c1.557.43,2.586.709,3.106.131.43-.479.145-1.2.05-1.439a4.1,4.1,0,0,0-2.567-2.211l-1.4.7c1.247.232,2.558.749,3.01,1.892a1.569,1.569,0,0,1,.105.362,9.032,9.032,0,0,1-2.03-.424,21.093,21.093,0,0,0-3.337-.71l-1.459.725-.885.44c.084-.027.168-.053.281-.079C1056.336,641.057,1058.3,641.6,1059.884,642.032Z" transform="translate(-1048.643 -638.513)" fill="#fff"/>
          </g>
        </g>
      </g>
    </g>
    <g id="obj_3" data-name="obj 3" transform="translate(1066.177 390.856)">
      <g id="Grupo_40" data-name="Grupo 40" transform="translate(0 0)">
        <path id="Caminho_100" data-name="Caminho 100" d="M1063.482,364.913c-.427,5.046.222,11.053,3.364,15.759.153.228.308.449.473.66a.912.912,0,0,0,.063.089c.135.173.27.347.406.513.046.056.093.105.139.161.119.134.232.266.346.391.069.069.132.138.2.2l.284.3c.088.075.168.156.256.231s.164.148.239.22c.1.079.2.165.3.245.066.056.134.111.2.16.111.09.225.173.334.249.062.047.12.085.184.126.113.083.235.162.353.233.011.011.024.015.028.023a9.241,9.241,0,0,0,1.888-.145,8.225,8.225,0,0,0,5.862-4.373c2.934-5.71,4.491-15.4-1.046-23.139a16.939,16.939,0,0,0-4.219-4.209,9.866,9.866,0,0,0-3-1.392l-.05.027c-.268.168-.531.345-.785.539a.107.107,0,0,0-.036.024,13.158,13.158,0,0,0-3.333,3.862c0,.006-.011.011-.015.024-.163.283-.314.571-.45.856a.07.07,0,0,0-.018.037c-.139.291-.269.579-.378.865A27.993,27.993,0,0,0,1063.482,364.913Z" transform="translate(-1063.364 -331.148)" opacity="0.5" fill="url(#linear-gradient-47)"/>
        <path id="Caminho_101" data-name="Caminho 101" d="M1079.257,395.055l-1.507-9.767-2.748.361,1.507,9.767Z" transform="translate(-1063.472 -331.465)" fill="#b7c0e2"/>
        <ellipse id="Elipse_16" data-name="Elipse 16" cx="19.164" cy="21.908" rx="19.164" ry="21.908" transform="translate(39.908 36.645) rotate(-72.957)" fill="url(#linear-gradient-48)"/>
        <path id="Caminho_102" data-name="Caminho 102" d="M1138.457,379.539l-2.232-11.061s3.532-.367,3.373-4.763-6.353-3.861-7.127.366a5.985,5.985,0,0,1-2.879-5.172c.18-3.423-.378-4.058-1.267-3.808s-4.651,5.53-8.222,5.073-4.227-1.528-4.638-.378,1.774,13.124,3.649,16.656a6.136,6.136,0,0,0,5.065,3.524l.871,5.339,8.548,4.881S1142.078,384.417,1138.457,379.539Z" transform="translate(-1063.848 -331.184)" fill="url(#linear-gradient-49)"/>
        <path id="Caminho_103" data-name="Caminho 103" d="M1122.829,543.9l-.7,2.279-17.336,3.034,22.628,6.937,3.038-9.91Z" transform="translate(-1063.749 -332.94)" fill="#1d164d"/>
        <path id="Caminho_104" data-name="Caminho 104" d="M1101.648,537.409l-.7,2.279-17.336,3.034,22.628,6.937,3.038-9.91Z" transform="translate(-1063.552 -332.879)" fill="#1d164d"/>
        <path id="Caminho_105" data-name="Caminho 105" d="M1119.443,448.789s-19.811,28.885-24.1,38.351,6.409,49.445,6.409,49.445l7.63,2.339s1.006-27.867,2.263-34.612,19.85-27.307,19.85-27.307l11.339-18.265-3.051-7.434Z" transform="translate(-1063.652 -332.055)" fill="url(#linear-gradient-50)"/>
        <path id="Caminho_106" data-name="Caminho 106" d="M1164.39,449.268s1.664,9.322-3.832,22.71-24.653,24.444-26.8,29.931-3.224,43.42-3.224,43.42l-7.631-2.34s-7.937-36.482-9.864-47.972,22.924-31.505,29.434-49.336Z" transform="translate(-1063.825 -332.027)" fill="url(#linear-gradient-51)"/>
        <path id="Caminho_107" data-name="Caminho 107" d="M1164.773,445.166a5.21,5.21,0,0,1,.422,5.81c-1.741,3.409-35.033,4.217-42.468,2.75-5.947-1.174-7.134-3.115-6.786-4.2a13.653,13.653,0,0,0,.437-4.395l-.484-30.2s-9.59,13.7-15.609,17.071-23.741-23.163-23.741-23.163l4.524-7.57s12.941,13.387,15.451,14.273,8.185-13.839,10.55-20.418,3.267-8.39,5.378-9.6,11.758-2.957,11.758-2.957a7.132,7.132,0,0,0,6.769,4.173c5.029-.14,7.124-6.976,7.124-6.976s17.373,5.355,23.105,7.083,23.338,27.5,26.891,35.2,7.4,28.82,7.4,28.82l-6.705,2.582s-10.666-21.937-15.228-27.858-15.45-12.389-15.45-12.389Z" transform="translate(-1063.487 -331.414)" fill="url(#linear-gradient-52)"/>
        <path id="Caminho_108" data-name="Caminho 108" d="M1082.629,411.676l-2.372-15.38-4.327.568,2.372,15.38Z" transform="translate(-1063.481 -331.568)" fill="#414e6e"/>
        <path id="Caminho_109" data-name="Caminho 109" d="M1077.828,414.777l5.315-.7a1.214,1.214,0,0,0,1.022-1.484h0a1.212,1.212,0,0,0-1.339-.923l-5.314.7a1.214,1.214,0,0,0-1.023,1.484h0A1.214,1.214,0,0,0,1077.828,414.777Z" transform="translate(-1063.486 -331.71)" fill="#2c3449"/>
        <path id="Caminho_110" data-name="Caminho 110" d="M1075.52,397.147l5.314-.7a1.213,1.213,0,0,0,1.024-1.483h0a1.215,1.215,0,0,0-1.339-.924l-5.315.7a1.213,1.213,0,0,0-1.022,1.484h0A1.214,1.214,0,0,0,1075.52,397.147Z" transform="translate(-1063.464 -331.546)" fill="#2c3449"/>
        <path id="Caminho_111" data-name="Caminho 111" d="M1069.3,351.809a13.1,13.1,0,0,0-3.332,3.86A13.047,13.047,0,0,1,1069.3,351.809Z" transform="translate(-1063.388 -331.154)" fill="#b7c0e2"/>
        <path id="Caminho_112" data-name="Caminho 112" d="M1070.336,384.524c.118.081.236.162.354.236C1070.572,384.685,1070.454,384.605,1070.336,384.524Z" transform="translate(-1063.429 -331.458)" fill="#b7c0e2"/>
        <path id="Caminho_113" data-name="Caminho 113" d="M1069.819,384.148c.111.085.221.169.333.25C1070.04,384.317,1069.93,384.233,1069.819,384.148Z" transform="translate(-1063.424 -331.455)" fill="#b7c0e2"/>
        <path id="Caminho_114" data-name="Caminho 114" d="M1070.149,351.242q-.4.248-.786.534Q1069.745,351.489,1070.149,351.242Z" transform="translate(-1063.42 -331.149)" fill="#b7c0e2"/>
        <path id="Caminho_115" data-name="Caminho 115" d="M1069.314,383.736c.1.084.2.167.3.248C1069.51,383.9,1069.412,383.82,1069.314,383.736Z" transform="translate(-1063.419 -331.451)" fill="#b7c0e2"/>
        <path id="Caminho_116" data-name="Caminho 116" d="M1067.352,381.617c.022.03.045.057.066.086C1067.4,381.674,1067.374,381.647,1067.352,381.617Z" transform="translate(-1063.401 -331.431)" fill="#b7c0e2"/>
        <path id="Caminho_117" data-name="Caminho 117" d="M1068.32,382.778c.065.07.132.138.2.206C1068.452,382.916,1068.385,382.848,1068.32,382.778Z" transform="translate(-1063.41 -331.442)" fill="#b7c0e2"/>
        <path id="Caminho_118" data-name="Caminho 118" d="M1068.814,383.28q.125.12.251.235C1068.981,383.438,1068.9,383.36,1068.814,383.28Z" transform="translate(-1063.415 -331.447)" fill="#b7c0e2"/>
        <path id="Caminho_119" data-name="Caminho 119" d="M1067.832,382.225c.046.055.092.106.139.16C1067.924,382.331,1067.878,382.279,1067.832,382.225Z" transform="translate(-1063.406 -331.437)" fill="#b7c0e2"/>
        <path id="Caminho_120" data-name="Caminho 120" d="M1065.949,355.726q-.245.428-.454.861Q1065.7,356.154,1065.949,355.726Z" transform="translate(-1063.384 -331.19)" fill="#b7c0e2"/>
        <path id="Caminho_121" data-name="Caminho 121" d="M1063.485,364.966a27.948,27.948,0,0,1,1.6-7.468c.111-.287.24-.577.377-.866-.138.288-.264.578-.375.864A27.928,27.928,0,0,0,1063.485,364.966Z" transform="translate(-1063.365 -331.199)" fill="#b7c0e2"/>
        <path id="Caminho_122" data-name="Caminho 122" d="M1069.067,383.517c.081.073.162.146.245.217C1069.229,383.663,1069.148,383.59,1069.067,383.517Z" transform="translate(-1063.417 -331.449)" fill="#b7c0e2"/>
        <path id="Caminho_123" data-name="Caminho 123" d="M1068.52,382.986c.1.1.193.2.291.291C1068.713,383.183,1068.617,383.085,1068.52,382.986Z" transform="translate(-1063.412 -331.444)" fill="#b7c0e2"/>
        <path id="Caminho_124" data-name="Caminho 124" d="M1067.972,382.386c.114.133.229.264.344.388C1068.2,382.65,1068.086,382.519,1067.972,382.386Z" transform="translate(-1063.407 -331.438)" fill="#b7c0e2"/>
        <path id="Caminho_125" data-name="Caminho 125" d="M1066.844,380.8q.23.345.471.664c-.159-.213-.316-.433-.469-.662-3.145-4.7-3.791-10.715-3.362-15.757C1063.055,370.085,1063.7,376.1,1066.844,380.8Z" transform="translate(-1063.364 -331.277)" fill="#b7c0e2"/>
        <path id="Caminho_126" data-name="Caminho 126" d="M1067.419,381.7c.135.177.271.35.409.516C1067.689,382.054,1067.554,381.881,1067.419,381.7Z" transform="translate(-1063.402 -331.432)" fill="#b7c0e2"/>
        <path id="Caminho_127" data-name="Caminho 127" d="M1069.363,351.781l-.035.028Z" transform="translate(-1063.42 -331.154)" fill="#b7c0e2"/>
        <path id="Caminho_128" data-name="Caminho 128" d="M1069.613,383.986c.067.055.136.108.2.161C1069.749,384.094,1069.68,384.041,1069.613,383.986Z" transform="translate(-1063.422 -331.453)" fill="#b7c0e2"/>
        <path id="Caminho_129" data-name="Caminho 129" d="M1070.2,351.211l0,0-.05.029C1070.171,351.233,1070.186,351.221,1070.2,351.211Z" transform="translate(-1063.427 -331.148)" fill="#b7c0e2"/>
        <path id="Caminho_130" data-name="Caminho 130" d="M1065.965,355.705l-.012.021Z" transform="translate(-1063.388 -331.19)" fill="#b7c0e2"/>
        <path id="Caminho_131" data-name="Caminho 131" d="M1070.724,384.782l-.03-.02.033.02Z" transform="translate(-1063.432 -331.46)" fill="#b7c0e2"/>
        <path id="Caminho_132" data-name="Caminho 132" d="M1065.495,356.6l-.018.037Z" transform="translate(-1063.384 -331.199)" fill="#b7c0e2"/>
        <path id="Caminho_133" data-name="Caminho 133" d="M1070.155,384.4c.059.043.12.082.179.123C1070.275,384.482,1070.214,384.443,1070.155,384.4Z" transform="translate(-1063.427 -331.457)" fill="#b7c0e2"/>
        <path id="Caminho_134" data-name="Caminho 134" d="M1077.783,385.5l1.334,8.65h0l-4.026-7.926,1.531-.784.793-.1Z" transform="translate(-1063.473 -331.466)" fill="#8f9bc1"/>
        <path id="Caminho_135" data-name="Caminho 135" d="M1070.208,351.2a9.87,9.87,0,0,1,3,1.392,16.94,16.94,0,0,1,4.219,4.208c5.537,7.742,3.98,17.428,1.046,23.139a8.226,8.226,0,0,1-5.862,4.373,9.241,9.241,0,0,1-1.888.145,8.712,8.712,0,0,0,12.729-3.556c3.079-6.187,4.865-16.6-.543-24.779-1.882-2.845-4.978-5.909-8.6-6.052a6.722,6.722,0,0,0-2.666.435A8.5,8.5,0,0,0,1070.208,351.2Z" transform="translate(-1063.428 -331.138)" fill="#eaf5ff"/>
        <path id="Caminho_136" data-name="Caminho 136" d="M1063.482,364.913c-.427,5.046.222,11.053,3.364,15.759.153.228.308.449.473.66a.912.912,0,0,0,.063.089c.135.173.27.347.406.513.046.056.093.105.139.161.119.134.232.266.346.391.069.069.132.138.2.2l.284.3c.088.075.168.156.256.231s.164.148.239.22c.1.079.2.165.3.245.066.056.134.111.2.16.111.09.225.173.334.249.062.047.12.085.184.126.113.083.235.162.353.233.011.011.024.015.028.023a9.241,9.241,0,0,0,1.888-.145,14.14,14.14,0,0,1-2.207-2.583c-5.008-7.49-3.675-18.3-1.763-23.226a13.233,13.233,0,0,1,4.567-5.912,9.866,9.866,0,0,0-3-1.392l-.05.027c-.268.168-.531.345-.785.539a.107.107,0,0,0-.036.024,13.158,13.158,0,0,0-3.333,3.862c0,.006-.011.011-.015.024-.163.283-.314.571-.45.856a.07.07,0,0,0-.018.037c-.139.291-.269.579-.378.865A27.993,27.993,0,0,0,1063.482,364.913Z" transform="translate(-1063.364 -331.148)" fill="#c9e2f4"/>
        <path id="Caminho_137" data-name="Caminho 137" d="M1076.2,398.822s-1.618-.537-2.729,2.383a6.286,6.286,0,0,0,2.55,7.565c2.444,1.532,4.442,1.536,4.481-2.279a7.7,7.7,0,0,0-3.161-6.491A3.246,3.246,0,0,1,1076.2,398.822Z" transform="translate(-1063.454 -331.591)" fill="#f9bf9d"/>
        <path id="Caminho_138" data-name="Caminho 138" d="M1196.542,451.54s7.494,15.457,5.667,18.2-8.21-6.691-9.029-7.232-1.759,1.954-2.995.126,1.534-6.139-.348-8.513Z" transform="translate(-1064.54 -332.081)" fill="#f9bf9d"/>
        <path id="Caminho_139" data-name="Caminho 139" d="M1147.329,405.308l11.418,8.138,6.667,31.958a5.211,5.211,0,0,1,.422,5.81c-.908,1.777-10.388,2.847-20.31,3.256,14.894-1.544,14.147-8.683,10.932-19.755S1147.329,405.308,1147.329,405.308Z" transform="translate(-1064.128 -331.651)" fill="#ff8a5f"/>
        <path id="Caminho_140" data-name="Caminho 140" d="M1090.679,426.736c.255.2,6.735,5.13,10.952-.818,4.3-6.068,14.16-30.211,14.16-30.211l.234,19.376s-9.59,13.7-15.609,17.071C1098.237,433.375,1094.527,430.672,1090.679,426.736Z" transform="translate(-1063.618 -331.562)" fill="#ff8a5f"/>
        <path id="Caminho_141" data-name="Caminho 141" d="M1124.26,380.176l.386,2.368h0c6.175,0,8.933-5.794,8.933-5.794A11.332,11.332,0,0,1,1124.26,380.176Z" transform="translate(-1063.93 -331.386)" fill="#1d164d"/>
      </g>
    </g>
  </g>
</svg>
